<?xml version="1.0" standalone="no"?>
<!DOCTYPE svg PUBLIC "-//W3C//DTD SVG 20010904//EN"
 "http://www.w3.org/TR/2001/REC-SVG-20010904/DTD/svg10.dtd">
<svg version="1.0" xmlns="http://www.w3.org/2000/svg"
 width="300.000000pt" height="303.000000pt" viewBox="0 0 300.000000 303.000000"
 preserveAspectRatio="xMidYMid meet">
<metadata>
Created by potrace 1.10, written by Peter Selinger 2001-2011
</metadata>
<g transform="translate(0.000000,303.000000) scale(0.100000,-0.100000)"
fill="#000000" stroke="none">
<path d="M71 2998 c-1 -34 -4 -38 -28 -39 -24 -2 -25 -2 -5 -6 24 -5 32 -47
10 -56 -8 -3 -6 -6 5 -6 13 -1 17 7 17 34 0 33 2 35 35 35 34 0 35 1 33 38
l-1 37 -4 -33 c-4 -27 -8 -33 -26 -30 -15 2 -24 12 -28 33 -6 29 -7 29 -8 -7z"/>
<path d="M222 2998 c-2 -36 0 -38 28 -38 28 0 30 2 28 38 -1 36 -1 36 -5 5 -3
-24 -9 -33 -23 -33 -14 0 -20 9 -23 33 -4 31 -4 31 -5 -5z"/>
<path d="M362 2998 c-2 -37 -1 -38 33 -38 29 0 35 -4 36 -22 1 -17 2 -19 6 -5
2 9 13 17 23 17 11 0 24 -8 29 -17 9 -16 10 -16 11 5 0 18 5 22 35 22 29 0 35
-4 36 -22 0 -17 2 -19 7 -8 10 22 49 25 55 3 4 -14 5 -13 6 5 1 19 -4 22 -34
22 -33 0 -35 2 -37 38 -1 36 -1 36 -5 5 -4 -27 -9 -33 -28 -33 -19 0 -24 6
-28 33 -4 31 -4 31 -5 -5 -2 -36 -4 -38 -37 -38 -34 0 -35 2 -36 38 -1 36 -2
36 -8 7 -4 -21 -13 -31 -28 -33 -18 -3 -22 3 -26 30 l-4 33 -1 -37z"/>
<path d="M700 2999 c0 -28 -3 -31 -25 -27 -14 3 -25 1 -25 -3 0 -5 14 -9 30
-9 28 0 30 3 30 35 0 19 -2 35 -5 35 -3 0 -5 -14 -5 -31z"/>
<path d="M840 2999 c0 -28 -3 -31 -25 -27 -14 3 -25 1 -25 -3 0 -5 16 -9 35
-9 29 0 35 -4 36 -22 1 -17 2 -19 6 -5 2 9 13 17 23 17 11 0 24 -8 29 -17 9
-16 10 -16 11 5 0 18 5 22 35 22 29 0 35 -4 36 -22 1 -17 2 -19 6 -5 3 10 14
17 28 17 14 0 25 -7 28 -17 4 -14 5 -12 6 5 1 18 7 22 36 22 34 0 35 1 33 38
-1 36 -1 36 -5 5 -3 -24 -9 -33 -23 -33 -18 0 -34 25 -25 40 3 5 1 11 -5 15
-6 4 -10 -8 -10 -29 0 -34 -2 -36 -35 -36 -33 0 -35 2 -37 38 -1 36 -1 36 -5
5 -4 -27 -9 -33 -28 -33 -19 0 -24 6 -28 33 -4 31 -4 31 -5 -6 -2 -38 -2 -38
-39 -35 -36 3 -38 4 -35 36 2 18 -1 32 -7 32 -6 0 -11 -14 -11 -31z"/>
<path d="M1221 3014 c0 -11 3 -14 6 -6 3 7 2 16 -1 19 -3 4 -6 -2 -5 -13z"/>
<path d="M1270 3000 c0 -23 -5 -30 -19 -30 -11 0 -22 6 -24 13 -3 7 -6 5 -6
-5 -1 -13 7 -18 29 -18 28 0 30 3 30 35 0 19 -2 35 -5 35 -3 0 -5 -13 -5 -30z"/>
<path d="M1362 2998 c-2 -37 -1 -38 33 -38 29 0 35 -4 36 -22 1 -17 2 -19 6
-5 2 9 13 17 23 17 11 0 24 -8 29 -17 9 -16 10 -16 11 5 0 18 5 22 35 22 29 0
35 -4 36 -22 1 -18 2 -19 6 -5 6 22 45 19 55 -3 5 -11 7 -9 7 8 1 19 -4 22
-34 22 -33 0 -35 2 -37 38 l-1 37 -4 -33 c-4 -27 -8 -33 -26 -30 -15 2 -24 12
-28 33 -6 29 -7 29 -8 -7 -1 -36 -2 -38 -36 -38 -33 0 -35 2 -35 36 0 21 -4
33 -10 29 -6 -4 -8 -10 -5 -15 9 -15 -7 -40 -25 -40 -14 0 -20 9 -23 33 -4 31
-4 31 -5 -5z"/>
<path d="M1700 2999 c0 -28 -3 -31 -25 -27 -14 3 -25 1 -25 -3 0 -5 14 -9 30
-9 28 0 30 3 30 35 0 19 -2 35 -5 35 -3 0 -5 -14 -5 -31z"/>
<path d="M1792 2998 c-2 -37 -1 -38 33 -38 29 0 35 -4 36 -22 1 -17 2 -19 6
-5 2 9 13 17 23 17 11 0 24 -8 29 -17 9 -16 10 -16 11 5 0 18 5 22 35 22 29 0
35 -4 36 -22 1 -17 2 -19 6 -5 3 10 14 17 28 17 14 0 25 -7 28 -17 4 -14 5
-12 6 5 1 18 7 22 36 22 34 0 35 1 33 38 -1 36 -1 36 -5 5 -3 -24 -9 -33 -23
-33 -18 0 -34 25 -25 40 3 5 1 11 -5 15 -6 4 -10 -8 -10 -29 0 -34 -2 -36 -35
-36 -33 0 -35 2 -37 38 -1 36 -1 36 -5 5 -4 -27 -9 -33 -28 -33 -19 0 -24 6
-28 33 -4 31 -4 31 -5 -6 -2 -38 -2 -38 -39 -35 -35 3 -39 6 -44 38 l-6 35 -2
-32 c-1 -26 -5 -33 -20 -33 -15 0 -21 8 -24 33 -4 31 -4 31 -5 -5z"/>
<path d="M2222 2998 c-2 -36 0 -38 28 -38 28 0 30 2 28 38 -1 36 -1 36 -5 5
-3 -24 -9 -33 -23 -33 -14 0 -20 9 -23 33 -4 31 -4 31 -5 -5z"/>
<path d="M2362 2998 c-2 -37 -1 -38 33 -38 29 0 35 -4 36 -22 1 -17 2 -19 6
-5 3 10 14 17 28 17 14 0 25 -7 28 -17 4 -14 5 -12 6 5 1 18 7 22 36 22 29 0
35 -4 36 -22 1 -17 2 -19 6 -5 3 10 14 17 28 17 14 0 25 -7 28 -17 4 -14 5
-12 6 5 1 19 -4 22 -34 22 -33 0 -35 2 -37 38 -1 36 -1 36 -5 5 -4 -28 -8 -33
-30 -33 -22 0 -25 4 -21 25 3 14 1 28 -3 31 -5 3 -9 -11 -9 -30 0 -34 -2 -36
-35 -36 -33 0 -35 2 -35 36 0 19 -4 33 -9 30 -4 -3 -7 -17 -6 -31 3 -20 -1
-25 -20 -25 -19 0 -25 6 -28 33 -4 31 -4 31 -5 -5z"/>
<path d="M2700 3001 c0 -25 -5 -30 -27 -34 -26 -4 -26 -4 5 -6 30 -1 32 1 32
34 0 19 -2 35 -5 35 -3 0 -5 -13 -5 -29z"/>
<path d="M2792 2998 c-2 -37 -1 -38 33 -38 33 0 35 -2 35 -35 0 -33 2 -35 35
-35 33 0 35 2 35 35 0 34 2 35 38 36 36 2 36 2 7 8 -22 4 -31 12 -33 31 -6 39
-12 37 -12 -3 0 -36 -1 -37 -35 -37 -33 0 -35 2 -35 35 0 19 -5 35 -10 35 -6
0 -10 -6 -9 -12 4 -33 -2 -48 -20 -48 -15 0 -21 8 -24 33 -4 31 -4 31 -5 -5z
m124 -75 c1 -18 -4 -23 -22 -23 -19 0 -24 5 -24 26 0 21 4 25 23 22 15 -2 22
-10 23 -25z"/>
<path d="M173 2953 c21 -3 27 -10 27 -28 0 -18 -6 -25 -27 -28 -26 -4 -26 -4
5 -6 30 -1 32 1 32 34 0 33 -2 35 -32 34 -31 -2 -31 -2 -5 -6z"/>
<path d="M291 2938 c1 -18 2 -19 6 -5 3 12 12 16 29 13 13 -3 24 0 24 5 0 5
-13 9 -30 9 -25 0 -30 -4 -29 -22z"/>
<path d="M720 2953 c0 -5 14 -8 30 -8 17 0 30 3 30 8 0 4 -13 7 -30 7 -16 0
-30 -3 -30 -7z"/>
<path d="M1150 2951 c0 -4 11 -6 24 -4 17 4 25 0 29 -14 4 -15 5 -14 6 5 1 18
-4 22 -29 22 -16 0 -30 -4 -30 -9z"/>
<path d="M1290 2943 c0 -14 2 -15 9 -4 5 8 18 12 30 8 12 -3 21 -1 21 4 0 5
-13 9 -30 9 -22 0 -30 -5 -30 -17z"/>
<path d="M1720 2953 c0 -5 14 -8 30 -8 17 0 30 3 30 8 0 4 -13 7 -30 7 -16 0
-30 -3 -30 -7z"/>
<path d="M2150 2951 c0 -4 11 -6 24 -4 17 4 25 0 29 -14 4 -15 5 -14 6 5 1 18
-4 22 -29 22 -16 0 -30 -4 -30 -9z"/>
<path d="M2291 2938 c1 -19 2 -20 6 -5 4 14 12 18 29 14 13 -2 24 0 24 4 0 5
-13 9 -30 9 -25 0 -30 -4 -29 -22z"/>
<path d="M2720 2951 c0 -4 12 -6 26 -3 25 5 26 3 22 -27 -2 -17 -1 -31 4 -31
4 0 8 16 8 35 0 32 -2 35 -30 35 -16 0 -30 -4 -30 -9z"/>
<path d="M277 2876 c-27 -7 -67 -26 -90 -43 -48 -33 -101 -116 -111 -170 -3
-21 -6 -405 -6 -854 0 -936 -4 -886 84 -974 92 -92 -17 -86 1362 -83 l1209 3
41 22 c63 34 97 66 129 125 l30 53 3 839 c3 953 6 911 -74 996 -25 26 -68 58
-97 71 l-52 24 -1190 2 c-954 1 -1200 -1 -1238 -11z m2478 -50 c52 -24 109
-80 126 -123 5 -14 9 -385 9 -889 l1 -866 -26 -44 c-29 -49 -92 -97 -150 -113
-28 -8 -392 -11 -1230 -11 l-1190 0 -50 24 c-60 28 -97 66 -124 126 -20 44
-21 62 -21 880 0 517 4 848 10 870 19 67 80 132 149 156 29 11 277 13 1241 13
l1205 1 50 -24z"/>
<path d="M343 2719 c-24 -12 -56 -37 -71 -58 -59 -75 -57 -55 -57 -696 1 -585
1 -590 22 -636 28 -57 90 -115 140 -128 54 -15 2182 -15 2236 0 53 14 122 80
144 137 17 44 18 91 17 637 -1 644 1 622 -60 694 -15 19 -46 42 -69 52 -38 18
-95 19 -1150 19 -1108 0 -1110 0 -1152 -21z m2292 -28 c46 -20 91 -69 103
-109 4 -15 7 -295 7 -622 l0 -595 -25 -43 c-14 -26 -42 -54 -66 -68 l-41 -24
-1112 0 c-922 0 -1117 2 -1144 14 -39 16 -82 61 -96 99 -7 19 -11 229 -11 628
0 569 1 602 19 637 23 45 46 66 91 86 30 13 178 15 1135 15 1046 1 1102 0
1140 -18z"/>
<path d="M430 2635 c0 -33 -2 -35 -35 -35 -33 0 -35 -2 -35 -35 0 -33 2 -35
36 -35 35 0 35 -1 32 -37 -3 -36 -4 -38 -35 -35 -20 2 -33 -1 -33 -8 0 -6 6
-10 13 -9 33 4 47 -2 47 -21 0 -26 -46 -28 -53 -2 -4 13 -5 11 -6 -5 -1 -20 4
-23 34 -23 33 0 35 2 35 35 0 33 2 35 35 35 33 0 35 -2 35 -35 0 -33 2 -35 35
-35 33 0 35 2 35 35 0 33 2 35 35 35 33 0 35 2 35 35 0 33 -2 35 -35 35 -33 0
-35 2 -35 35 0 33 2 35 35 35 33 0 35 2 35 35 0 33 -2 35 -35 35 -33 0 -35 -2
-35 -35 0 -33 -2 -35 -35 -35 -33 0 -35 2 -35 35 0 33 -2 35 -35 35 -33 0 -35
-2 -35 -35z m60 0 c0 -20 -5 -25 -25 -25 -20 0 -25 5 -25 25 0 20 5 25 25 25
20 0 25 -5 25 -25z m140 0 c0 -20 -5 -25 -25 -25 -20 0 -24 4 -23 25 2 19 8
25 25 25 18 0 23 -6 23 -25z m-130 -70 c0 -33 -2 -35 -35 -35 -33 0 -35 2 -35
35 0 33 2 35 35 35 33 0 35 -2 35 -35z m-82 0 c1 -21 -3 -25 -23 -25 -20 0
-25 5 -25 25 0 19 5 25 23 25 17 0 23 -6 25 -25z m142 -1 c0 -21 -4 -25 -22
-22 -15 2 -24 11 -26 26 -3 18 1 22 22 22 21 0 26 -5 26 -26z m10 -69 c0 -22
-6 -38 -17 -44 -10 -6 -12 -11 -5 -11 6 0 12 -9 12 -20 0 -15 -7 -20 -25 -20
-18 0 -25 5 -25 20 0 11 6 20 13 20 7 1 5 6 -5 14 -11 8 -18 26 -18 45 0 29 2
31 35 31 33 0 35 -2 35 -35z m-80 -2 c0 -18 -5 -23 -25 -23 -18 0 -25 5 -25
19 0 19 12 28 38 28 6 0 12 -11 12 -24z m138 -1 c3 -18 -2 -22 -22 -22 -21 0
-26 5 -26 23 0 32 43 31 48 -1z"/>
<path d="M743 2663 c21 -3 27 -10 27 -29 0 -17 -6 -24 -19 -24 -11 0 -22 6
-24 13 -3 7 -6 5 -6 -5 -1 -13 7 -18 29 -18 28 0 30 3 30 35 0 33 -2 35 -32
34 -31 -2 -31 -2 -5 -6z"/>
<path d="M860 2635 c0 -33 2 -35 35 -35 33 0 35 -2 35 -35 0 -33 -2 -35 -35
-35 -33 0 -35 -2 -35 -35 0 -33 2 -35 35 -35 33 0 35 -2 35 -35 0 -33 2 -35
35 -35 33 0 35 2 35 35 0 33 2 35 35 35 33 0 35 -2 36 -32 1 -24 3 -27 6 -10
2 12 8 22 13 22 5 0 15 3 23 6 11 4 17 -2 20 -23 4 -26 4 -26 6 5 1 32 0 33
-31 30 -32 -3 -33 -1 -36 35 -3 36 -3 37 32 37 34 0 36 2 36 35 0 33 -2 35
-35 35 -33 0 -35 2 -35 35 0 33 -2 35 -35 35 -33 0 -35 -2 -35 -35 0 -33 -2
-35 -35 -35 -33 0 -35 2 -35 35 0 33 -2 35 -35 35 -33 0 -35 -2 -35 -35z m50
0 c0 -18 -5 -25 -20 -25 -15 0 -20 7 -20 25 0 18 5 25 20 25 15 0 20 -7 20
-25z m150 0 c0 -20 -5 -25 -24 -25 -18 0 -23 5 -23 25 0 20 5 25 23 25 19 0
24 -5 24 -25z m10 -70 c0 -33 -2 -35 -35 -35 -33 0 -35 2 -35 35 0 33 2 35 35
35 33 0 35 -2 35 -35z m-80 0 c0 -20 -5 -25 -25 -25 -20 0 -25 5 -25 25 0 20
5 25 25 25 20 0 25 -5 25 -25z m140 0 c0 -18 -5 -25 -19 -25 -11 0 -23 5 -26
10 -11 18 3 40 25 40 15 0 20 -7 20 -25z m-130 -70 c0 -33 -2 -35 -35 -35 -33
0 -35 2 -35 35 0 33 2 35 35 35 33 0 35 -2 35 -35z m-96 19 c27 -10 20 -44 -9
-44 -20 0 -25 5 -25 25 0 26 7 29 34 19z m154 -23 c-2 -9 -13 -17 -26 -19 -16
-3 -22 2 -22 16 0 11 6 22 13 25 20 7 38 -4 35 -22z m-68 -66 c0 -20 -5 -25
-25 -25 -43 0 -31 46 13 49 6 1 12 -10 12 -24z"/>
<path d="M1151 2653 c0 -11 3 -13 6 -5 2 6 13 12 24 12 14 0 19 -7 19 -25 0
-18 -5 -25 -19 -25 -11 0 -22 6 -24 13 -3 7 -6 5 -6 -5 -1 -13 7 -18 29 -18
28 0 30 3 30 35 0 32 -2 35 -30 35 -22 0 -30 -5 -29 -17z"/>
<path d="M1290 2634 c0 -34 1 -35 33 -32 28 3 32 7 35 36 3 31 2 32 -32 32
-35 0 -36 -1 -36 -36z m50 1 c0 -18 -5 -25 -20 -25 -15 0 -20 7 -20 25 0 18 5
25 20 25 15 0 20 -7 20 -25z"/>
<path d="M1430 2635 c0 -33 -2 -35 -35 -35 -33 0 -35 -2 -35 -35 0 -33 2 -35
35 -35 33 0 35 -2 35 -34 0 -26 -5 -35 -22 -41 -18 -6 -20 -8 -7 -12 23 -6 12
-43 -12 -43 -13 0 -19 9 -22 33 -4 31 -4 31 -5 -5 -2 -37 -1 -38 33 -38 33 0
35 2 35 35 0 33 2 35 35 35 33 0 35 -2 35 -35 0 -27 4 -35 18 -34 10 0 12 3 5
6 -15 5 -17 39 -4 47 19 12 43 -7 38 -30 -2 -13 0 -24 4 -24 5 0 9 16 9 35 0
33 2 35 35 35 33 0 35 2 35 35 0 33 -2 35 -35 35 -33 0 -35 2 -35 35 0 33 2
35 35 35 33 0 35 2 35 35 0 33 -2 35 -35 35 -33 0 -35 -2 -35 -35 0 -33 -2
-35 -35 -35 -33 0 -35 2 -35 35 0 33 -2 35 -35 35 -33 0 -35 -2 -35 -35z m60
0 c0 -20 -5 -25 -25 -25 -20 0 -25 5 -25 25 0 20 5 25 25 25 20 0 25 -5 25
-25z m140 0 c0 -20 -5 -25 -25 -25 -20 0 -25 5 -25 25 0 20 5 25 25 25 20 0
25 -5 25 -25z m-130 -70 c0 -33 -2 -35 -35 -35 -33 0 -35 2 -35 35 0 33 2 35
35 35 33 0 35 -2 35 -35z m-85 0 c0 -13 -8 -21 -22 -23 -19 -3 -23 1 -23 23 0
22 4 26 23 23 14 -2 22 -10 22 -23z m145 0 c0 -20 -5 -25 -25 -25 -20 0 -25 5
-25 25 0 20 5 25 25 25 20 0 25 -5 25 -25z m10 -70 c0 -33 -2 -35 -35 -35 -33
0 -35 2 -35 35 0 33 2 35 35 35 33 0 35 -2 35 -35z m-80 0 c0 -20 -5 -25 -25
-25 -33 0 -35 37 -2 43 12 2 23 5 25 6 1 0 2 -10 2 -24z m140 -6 c0 -14 -7
-19 -25 -19 -20 0 -25 5 -25 24 0 19 4 22 25 18 16 -3 25 -11 25 -23z"/>
<path d="M1720 2635 c0 -32 2 -35 30 -35 28 0 30 3 30 35 0 32 -2 35 -30 35
-28 0 -30 -3 -30 -35z m50 0 c0 -18 -5 -25 -20 -25 -15 0 -20 7 -20 25 0 18 5
25 20 25 15 0 20 -7 20 -25z"/>
<path d="M1860 2635 c0 -33 2 -35 35 -35 33 0 35 -2 35 -35 0 -33 -2 -35 -35
-35 -33 0 -35 -2 -35 -35 0 -33 2 -35 35 -35 33 0 35 -2 35 -35 0 -33 2 -35
35 -35 33 0 35 2 35 35 0 33 2 35 35 35 33 0 35 -2 35 -35 0 -26 4 -35 16 -35
13 0 14 3 4 15 -16 20 -8 38 18 40 17 1 22 -4 22 -21 0 -12 -6 -25 -12 -27 -8
-3 -6 -6 5 -6 13 -1 17 7 17 35 0 34 -1 35 -32 32 -32 -3 -33 -1 -36 35 -3 36
-3 37 32 37 34 0 36 2 36 35 0 33 -2 35 -35 35 -33 0 -35 2 -35 35 0 32 -2 35
-27 34 -24 -2 -25 -2 -5 -6 33 -7 31 -53 -2 -53 -20 0 -25 6 -29 33 -4 31 -4
31 -5 -5 -2 -36 -4 -38 -37 -38 -33 0 -35 2 -35 35 0 33 -2 35 -35 35 -33 0
-35 -2 -35 -35z m55 8 c-2 -10 -4 -21 -4 -25 -1 -5 -10 -8 -21 -8 -15 0 -20 7
-20 25 0 20 5 25 24 25 18 0 23 -5 21 -17z m155 -78 c0 -33 -2 -35 -35 -35
-33 0 -35 2 -35 35 0 33 2 35 35 35 33 0 35 -2 35 -35z m-82 3 c-2 -15 -11
-24 -25 -26 -19 -3 -23 1 -23 22 0 21 5 26 26 26 21 0 25 -4 22 -22z m142 -3
c0 -29 -34 -36 -44 -9 -8 21 1 34 25 34 14 0 19 -7 19 -25z m-130 -70 c0 -31
-3 -35 -25 -35 -14 0 -25 -5 -25 -10 0 -6 8 -10 18 -8 11 2 18 -4 20 -19 3
-19 -1 -23 -21 -23 -21 0 -25 6 -31 46 -11 81 -10 84 29 84 33 0 35 -2 35 -35z
m-86 -16 c-2 -4 -13 -7 -24 -6 -22 1 -28 32 -7 40 14 5 39 -22 31 -34z m144
13 c3 -18 -1 -22 -22 -22 -19 0 -26 5 -26 18 0 39 43 43 48 4z"/>
<path d="M2173 2663 c21 -3 27 -10 27 -29 0 -17 -5 -24 -20 -24 -11 0 -20 5
-20 11 0 5 -5 7 -10 4 -18 -11 0 -25 31 -25 27 0 29 3 29 35 0 33 -2 35 -32
34 -31 -2 -31 -2 -5 -6z"/>
<path d="M2290 2635 c0 -32 3 -35 29 -35 16 0 31 6 35 15 3 8 1 15 -4 15 -6 0
-10 -4 -10 -10 0 -5 -9 -10 -20 -10 -15 0 -20 7 -20 24 0 19 6 26 28 29 25 4
25 4 -5 6 -31 1 -33 -1 -33 -34z"/>
<path d="M2430 2635 c0 -33 -2 -35 -35 -35 -33 0 -35 -2 -35 -35 0 -33 2 -35
36 -35 35 0 35 -1 32 -37 -3 -36 -4 -38 -35 -35 -32 3 -33 2 -33 -32 0 -34 2
-36 35 -36 33 0 35 2 35 35 0 33 2 35 35 35 33 0 35 -2 35 -35 0 -33 2 -35 35
-35 33 0 35 2 35 35 0 33 2 35 35 35 33 0 35 2 35 35 0 33 -2 35 -35 35 -34 0
-35 2 -35 36 l0 36 63 -4 c34 -3 50 -3 35 -1 -23 4 -28 10 -29 36 -2 30 -2 31
-6 5 -3 -21 -10 -28 -27 -28 -18 0 -22 5 -20 30 1 17 -2 30 -7 30 -5 0 -9 -16
-9 -35 0 -33 -2 -35 -35 -35 -33 0 -35 2 -35 35 0 33 -2 35 -35 35 -33 0 -35
-2 -35 -35z m60 0 c0 -20 -5 -25 -25 -25 -20 0 -25 5 -25 25 0 20 5 25 25 25
20 0 25 -5 25 -25z m10 -70 c0 -33 -2 -35 -35 -35 -33 0 -35 2 -35 35 0 33 2
35 35 35 33 0 35 -2 35 -35z m-82 0 c0 -20 -6 -25 -24 -25 -19 0 -24 5 -24 25
0 20 5 25 24 25 18 0 24 -5 24 -25z m140 0 c0 -20 -6 -25 -24 -25 -19 0 -24 5
-24 25 0 20 5 25 24 25 18 0 24 -5 24 -25z m12 -70 c0 -33 -2 -35 -35 -35 -33
0 -35 2 -35 35 0 33 2 35 35 35 33 0 35 -2 35 -35z m-80 -6 c0 -14 -7 -19 -25
-19 -20 0 -25 5 -25 24 0 19 4 22 25 18 16 -3 25 -11 25 -23z m140 -1 c0 -14
-6 -19 -22 -16 -20 3 -30 21 -21 40 7 14 43 -5 43 -24z m-215 -63 c0 -13 -8
-21 -22 -23 -19 -3 -23 1 -23 23 0 22 4 26 23 23 14 -2 22 -10 22 -23z m143
-3 c3 -18 -1 -22 -22 -22 -19 0 -26 5 -26 18 0 39 43 43 48 4z"/>
<path d="M320 2610 l-25 -8 28 -1 c15 -1 27 4 27 9 0 6 -1 10 -2 9 -2 -1 -14
-5 -28 -9z"/>
<path d="M651 2583 c0 -11 3 -13 6 -5 2 6 13 12 24 12 13 0 19 -7 19 -24 0
-19 -6 -26 -27 -29 -26 -4 -26 -4 5 -6 30 -1 32 1 32 34 0 32 -2 35 -30 35
-22 0 -30 -5 -29 -17z"/>
<path d="M790 2565 c0 -33 2 -35 33 -34 30 2 30 2 5 6 -22 3 -28 10 -28 28 0
18 6 25 28 28 25 4 25 4 -5 6 -31 1 -33 -1 -33 -34z"/>
<path d="M1220 2565 c0 -32 2 -35 30 -35 28 0 30 3 30 35 0 32 -2 35 -30 35
-28 0 -30 -3 -30 -35z m50 0 c0 -18 -5 -25 -20 -25 -15 0 -20 7 -20 25 0 18 5
25 20 25 15 0 20 -7 20 -25z"/>
<path d="M1644 2589 c-3 -6 -1 -16 5 -22 8 -8 11 -6 11 6 0 10 8 17 20 17 15
0 20 -7 20 -24 0 -19 -6 -26 -27 -29 -26 -4 -26 -4 5 -6 30 -1 32 1 32 34 0
32 -2 35 -29 35 -17 0 -33 -5 -37 -11z"/>
<path d="M1790 2565 c0 -32 2 -35 30 -35 17 0 30 4 30 9 0 4 -11 6 -25 3 -22
-4 -25 -1 -25 23 0 25 3 27 29 23 17 -2 28 -1 25 4 -3 4 -18 8 -35 8 -27 0
-29 -3 -29 -35z"/>
<path d="M2220 2565 c0 -32 2 -35 30 -35 28 0 30 3 30 35 0 32 -2 35 -30 35
-28 0 -30 -3 -30 -35z m50 0 c0 -18 -5 -25 -20 -25 -15 0 -20 7 -20 25 0 18 5
25 20 25 15 0 20 -7 20 -25z"/>
<path d="M2647 2564 c-3 -3 -3 -12 0 -20 5 -14 63 -20 63 -6 0 4 -12 8 -27 7
-17 0 -27 5 -25 13 2 13 -1 15 -11 6z"/>
<path d="M290 2495 c0 -32 2 -35 30 -35 28 0 30 3 30 35 0 32 -2 35 -30 35
-28 0 -30 -3 -30 -35z m50 -2 c0 -16 -6 -23 -20 -23 -18 0 -29 28 -15 42 14
14 35 2 35 -19z"/>
<path d="M720 2495 c0 -33 2 -35 33 -34 30 2 30 2 5 6 -22 3 -28 10 -28 29 0
32 37 34 43 2 4 -20 4 -19 6 5 1 24 -3 27 -29 27 -28 0 -30 -3 -30 -35z"/>
<path d="M1150 2521 c0 -4 11 -6 25 -3 22 4 25 1 25 -23 0 -24 -3 -27 -25 -23
-14 3 -25 1 -25 -3 0 -5 14 -9 30 -9 28 0 30 3 30 35 0 32 -2 35 -30 35 -16 0
-30 -4 -30 -9z"/>
<path d="M1290 2495 c0 -32 2 -35 29 -35 17 0 33 4 36 10 4 6 -6 7 -25 4 -28
-6 -30 -4 -30 21 0 24 3 27 25 23 14 -3 25 -1 25 3 0 5 -13 9 -30 9 -28 0 -30
-3 -30 -35z"/>
<path d="M1720 2520 c0 -5 3 -9 8 -9 32 5 44 -2 40 -26 -3 -14 -1 -25 3 -25 5
0 9 16 9 35 0 32 -2 35 -30 35 -16 0 -30 -4 -30 -10z"/>
<path d="M2150 2513 c0 -10 4 -14 8 -8 4 6 15 11 25 13 13 2 17 -4 17 -24 0
-23 -3 -26 -25 -22 -14 3 -25 1 -25 -3 0 -5 14 -9 30 -9 28 0 30 3 30 35 0 32
-2 35 -30 35 -22 0 -30 -5 -30 -17z"/>
<path d="M2291 2508 c1 -17 2 -19 6 -5 2 9 13 17 24 17 14 0 19 -7 19 -26 0
-23 -3 -26 -25 -22 -14 3 -25 1 -25 -3 0 -5 14 -9 30 -9 28 0 30 3 30 35 0 32
-2 35 -30 35 -25 0 -30 -4 -29 -22z"/>
<path d="M1728 2463 c7 -3 16 -2 19 1 4 3 -2 6 -13 5 -11 0 -14 -3 -6 -6z"/>
<path d="M656 2451 c-3 -4 4 -8 17 -7 15 1 23 -5 25 -21 3 -17 -3 -22 -25 -26
-27 -4 -27 -4 5 -6 30 -1 32 1 32 34 0 30 -3 35 -24 35 -14 0 -27 -4 -30 -9z"/>
<path d="M790 2426 c0 -34 2 -36 34 -36 32 0 34 2 33 33 -2 28 -6 32 -34 35
-32 3 -33 2 -33 -32z m50 -3 c0 -16 -6 -23 -20 -23 -18 0 -29 28 -15 42 14 14
35 2 35 -19z"/>
<path d="M1220 2425 c0 -19 4 -35 8 -35 4 0 6 16 4 35 -2 19 -6 35 -8 35 -2 0
-4 -16 -4 -35z"/>
<path d="M1245 2450 c-3 -5 -1 -10 4 -10 6 0 11 5 11 10 0 6 -2 10 -4 10 -3 0
-8 -4 -11 -10z"/>
<path d="M1270 2431 c0 -16 -6 -32 -12 -34 -8 -3 -6 -6 5 -6 13 -1 17 7 17 34
0 19 -2 35 -5 35 -3 0 -5 -13 -5 -29z"/>
<path d="M1656 2451 c-4 -5 3 -7 14 -4 23 6 26 13 6 13 -8 0 -17 -4 -20 -9z"/>
<path d="M1791 2433 c0 -27 1 -27 9 -5 13 31 42 26 48 -10 2 -11 -6 -18 -25
-21 -26 -4 -26 -4 5 -6 32 -1 33 0 30 32 -3 28 -7 32 -35 35 -30 3 -33 1 -32
-25z"/>
<path d="M2224 2448 c-4 -6 -3 -8 4 -5 16 11 42 -3 42 -23 0 -13 -9 -20 -27
-23 -26 -4 -26 -4 5 -6 30 -1 32 1 32 34 0 30 -3 35 -24 35 -14 0 -28 -5 -32
-12z"/>
<path d="M2655 2450 c-4 -7 2 -9 19 -4 23 5 26 3 26 -19 0 -20 -6 -27 -27 -30
-26 -4 -26 -4 5 -6 30 -1 32 1 32 34 0 30 -3 35 -24 35 -14 0 -28 -5 -31 -10z"/>
<path d="M1692 2408 c-7 -7 -12 -21 -12 -33 0 -28 -268 -295 -296 -295 -24 0
-44 -18 -44 -40 0 -8 50 -65 110 -125 93 -93 113 -108 127 -99 10 6 20 20 23
31 3 11 26 44 52 72 l48 53 57 -55 c32 -30 135 -125 228 -210 l170 -156 27 26
27 25 -214 227 -214 226 54 53 c30 29 60 50 65 47 12 -8 50 22 50 38 0 17
-213 227 -230 227 -9 0 -21 -5 -28 -12z m133 -118 c49 -49 87 -91 84 -93 -2
-2 -21 -14 -41 -26 -57 -34 -113 -107 -102 -131 5 -10 98 -114 206 -229 109
-115 194 -212 189 -215 -4 -3 -106 84 -226 194 -120 110 -226 200 -236 200
-22 0 -106 -84 -123 -122 l-12 -27 -99 99 c-68 68 -94 100 -81 100 23 0 301
273 317 312 6 15 17 28 23 28 6 0 52 -40 101 -90z"/>
<path d="M291 2352 c-1 -32 0 -33 32 -30 27 2 33 8 35 31 3 24 0 27 -25 26
-17 -1 -21 -3 -10 -6 24 -6 22 -43 -2 -43 -14 0 -21 8 -24 28 -4 25 -4 24 -6
-6z"/>
<path d="M430 2350 c0 -22 5 -30 18 -29 10 0 12 3 5 6 -7 2 -13 13 -13 24 0
14 7 19 25 19 18 0 25 -5 25 -19 0 -11 -6 -22 -12 -24 -8 -3 -6 -6 5 -6 12 -1
17 7 17 29 0 28 -3 30 -35 30 -32 0 -35 -2 -35 -30z"/>
<path d="M570 2350 c0 -28 3 -30 35 -30 32 0 35 2 35 30 0 22 -5 30 -17 29
-11 0 -13 -3 -5 -6 6 -2 12 -13 12 -24 0 -13 -7 -19 -24 -19 -20 0 -24 4 -21
25 1 14 -2 25 -6 25 -5 0 -9 -13 -9 -30z"/>
<path d="M720 2350 c0 -27 3 -30 30 -30 27 0 30 3 30 30 0 27 -3 30 -30 30
-27 0 -30 -3 -30 -30z m50 0 c0 -13 -7 -20 -20 -20 -13 0 -20 7 -20 20 0 13 7
20 20 20 13 0 20 -7 20 -20z"/>
<path d="M860 2350 c0 -28 3 -30 35 -30 32 0 35 2 35 30 0 28 -3 30 -35 30
-32 0 -35 -2 -35 -30z m57 0 c-1 -14 -8 -20 -24 -20 -16 0 -23 6 -23 20 0 15
7 20 24 20 19 0 24 -5 23 -20z"/>
<path d="M1000 2350 c0 -16 4 -30 9 -30 5 0 7 9 4 21 -4 12 0 25 8 30 11 7 10
9 -3 9 -13 0 -18 -8 -18 -30z"/>
<path d="M1196 2365 c4 -8 8 -15 10 -15 2 0 4 7 4 15 0 8 -4 15 -10 15 -5 0
-7 -7 -4 -15z"/>
<path d="M1290 2350 c0 -27 3 -30 33 -29 30 2 30 2 5 6 -34 5 -41 43 -8 43 11
0 20 -5 20 -11 0 -5 5 -7 10 -4 18 11 0 25 -31 25 -26 0 -29 -3 -29 -30z"/>
<path d="M1430 2350 c0 -28 3 -30 35 -30 32 0 35 2 35 30 0 28 -3 30 -35 30
-32 0 -35 -2 -35 -30z m60 0 c0 -15 -7 -20 -25 -20 -18 0 -25 5 -25 20 0 15 7
20 25 20 18 0 25 -5 25 -20z"/>
<path d="M1570 2350 c0 -16 4 -30 8 -30 4 0 8 14 7 30 0 17 -3 30 -7 30 -5 0
-8 -13 -8 -30z"/>
<path d="M1860 2350 c0 -16 4 -30 9 -30 4 0 6 11 3 25 -4 22 -1 25 22 25 20 0
26 -4 24 -17 -2 -10 -10 -21 -18 -25 -11 -5 -9 -7 8 -7 18 -1 22 4 22 29 0 28
-3 30 -35 30 -32 0 -35 -2 -35 -30z"/>
<path d="M2000 2350 c0 -28 3 -30 35 -30 32 0 35 2 35 30 0 25 -4 30 -22 29
-17 -1 -19 -2 -5 -6 27 -7 22 -43 -7 -43 -20 0 -24 4 -21 25 1 14 -2 25 -6 25
-5 0 -9 -13 -9 -30z"/>
<path d="M2173 2373 c19 -3 27 -10 27 -25 0 -16 -5 -19 -25 -16 -14 3 -25 1
-25 -3 0 -5 14 -9 30 -9 27 0 30 3 30 30 0 27 -3 30 -32 29 -31 -2 -31 -2 -5
-6z"/>
<path d="M2290 2350 c0 -28 3 -30 35 -30 32 0 35 2 35 30 0 28 -3 30 -35 30
-32 0 -35 -2 -35 -30z m50 0 c0 -13 -7 -20 -20 -20 -13 0 -20 7 -20 20 0 13 7
20 20 20 13 0 20 -7 20 -20z"/>
<path d="M2430 2350 c0 -28 3 -30 35 -30 32 0 35 2 35 30 0 17 -4 30 -9 30 -4
0 -6 -11 -3 -25 4 -22 1 -25 -22 -25 -19 0 -26 5 -26 19 0 11 8 22 18 24 13 4
11 5 -5 6 -19 1 -23 -4 -23 -29z"/>
<path d="M2570 2350 c0 -28 3 -30 35 -30 33 0 35 2 34 33 -2 30 -2 30 -6 5 -3
-21 -10 -28 -27 -28 -30 0 -33 37 -3 43 18 4 17 5 -5 6 -25 1 -28 -3 -28 -29z"/>
<path d="M1060 2330 c0 -34 -3 -40 -20 -40 -58 0 -122 -63 -140 -138 -23 -99
23 -179 132 -226 139 -59 153 -68 156 -105 5 -49 -28 -81 -86 -81 -35 0 -49 6
-73 29 -16 16 -29 39 -29 51 0 19 -4 21 -27 16 -68 -17 -103 -27 -103 -31 0
-2 8 -23 19 -47 23 -54 78 -104 131 -118 39 -10 40 -12 40 -54 0 -44 0 -44 40
-48 l40 -4 0 47 0 47 45 11 c52 13 112 62 131 108 19 44 17 128 -2 170 -23 46
-66 77 -163 117 -45 18 -91 40 -102 49 -53 46 16 134 85 107 26 -10 66 -56 66
-76 0 -10 13 -7 53 8 28 12 54 23 56 25 2 1 -4 21 -14 44 -22 47 -65 83 -115
96 -31 8 -35 13 -38 46 -3 36 -4 37 -43 37 -39 0 -39 0 -39 -40z m55 -22 c10
-33 13 -35 82 -63 39 -16 73 -51 73 -73 0 -5 -11 -14 -24 -20 -22 -10 -27 -7
-50 23 -35 46 -84 61 -129 40 -36 -17 -67 -61 -67 -94 0 -30 56 -88 98 -102
85 -28 164 -72 183 -103 26 -43 26 -130 -1 -174 -21 -34 -74 -72 -101 -72 -21
0 -70 -38 -68 -53 3 -27 -2 -47 -11 -47 -5 0 -10 12 -10 26 0 41 -18 63 -63
75 -43 11 -117 77 -117 104 0 19 63 32 69 14 2 -8 19 -29 37 -46 28 -29 38
-33 87 -33 50 0 58 3 86 35 20 23 31 46 31 66 0 54 -31 83 -134 124 -114 45
-147 75 -156 142 -12 94 18 151 89 174 48 15 71 37 71 66 0 33 14 28 25 -9z"/>
<path d="M360 2281 c0 -26 4 -30 33 -33 29 -3 32 -6 35 -40 3 -37 3 -38 -32
-38 -34 0 -36 -2 -36 -35 0 -33 -2 -35 -35 -35 -26 0 -35 -4 -35 -17 0 -13 3
-14 12 -5 20 20 38 14 38 -13 0 -18 -5 -25 -19 -25 -11 0 -22 6 -24 13 -3 7
-6 5 -6 -5 -1 -14 7 -18 34 -18 33 0 35 -2 37 -37 1 -37 1 -37 5 -5 2 17 10
32 16 32 36 -1 49 -46 15 -53 -20 -4 -19 -4 5 -6 25 -1 27 2 27 34 0 33 2 35
35 35 33 0 35 -2 35 -35 0 -33 2 -35 35 -35 33 0 35 2 35 35 0 33 2 35 35 35
33 0 35 2 35 35 0 33 -2 35 -35 35 -33 0 -35 2 -35 35 0 39 3 40 84 29 41 -6
46 -10 46 -32 0 -21 -4 -24 -25 -20 -14 3 -25 1 -25 -3 0 -5 14 -9 30 -9 28 0
30 3 30 35 0 33 -2 35 -35 35 -33 0 -35 2 -35 35 0 33 -2 35 -35 35 -33 0 -35
2 -35 35 0 33 -2 35 -35 35 -32 0 -35 -2 -35 -30 0 -22 5 -30 18 -29 10 0 12
3 5 6 -7 2 -13 13 -13 24 0 14 7 19 26 19 23 0 26 -3 22 -25 -3 -14 -1 -28 3
-31 5 -3 9 -21 9 -40 0 -32 -2 -34 -35 -34 -33 0 -35 2 -35 35 0 33 -2 35 -35
35 -33 0 -35 2 -35 35 0 19 -5 35 -10 35 -6 0 -8 -11 -6 -25 4 -21 1 -25 -20
-25 -29 0 -34 36 -6 43 13 4 11 5 -5 6 -19 1 -23 -4 -23 -28z m130 -76 c0 -20
-5 -25 -25 -25 -20 0 -25 5 -25 25 0 20 5 25 25 25 20 0 25 -5 25 -25z m140 0
c0 -20 -5 -25 -24 -25 -18 0 -23 5 -21 23 3 28 2 27 25 27 15 0 20 -7 20 -25z
m-130 -70 c0 -33 -2 -35 -35 -35 -33 0 -35 2 -35 35 0 33 2 35 35 35 33 0 35
-2 35 -35z m-85 8 c-2 -10 -4 -21 -4 -25 -1 -5 -10 -8 -21 -8 -15 0 -20 7 -20
25 0 20 5 25 24 25 18 0 23 -5 21 -17z m145 -8 c0 -20 -5 -25 -25 -25 -20 0
-25 5 -25 25 0 20 5 25 25 25 20 0 25 -5 25 -25z m-130 -70 c0 -33 -2 -35 -35
-35 -33 0 -35 2 -35 35 0 33 2 35 35 35 33 0 35 -2 35 -35z m140 0 c0 -24 -5
-35 -15 -35 -8 0 -15 -5 -15 -11 0 -5 5 -7 10 -4 6 4 10 -5 10 -19 0 -21 -5
-26 -25 -26 -27 0 -35 26 -13 48 9 9 8 12 -5 12 -13 0 -17 9 -17 35 0 33 2 35
35 35 33 0 35 -2 35 -35z m-80 0 c0 -20 -5 -25 -25 -25 -20 0 -25 5 -25 25 0
20 5 25 25 25 20 0 25 -5 25 -25z m140 0 c0 -20 -5 -25 -25 -25 -20 0 -25 5
-25 25 0 20 5 25 25 25 20 0 25 -5 25 -25z"/>
<path d="M650 2301 c0 -4 11 -6 25 -3 20 3 25 0 25 -17 0 -19 -20 -28 -53 -22
-5 1 -6 -2 -3 -7 3 -5 19 -7 36 -4 25 4 30 9 30 33 0 26 -4 29 -30 29 -16 0
-30 -4 -30 -9z"/>
<path d="M790 2281 c0 -20 6 -30 19 -34 27 -7 51 11 51 38 0 22 -5 25 -35 25
-32 0 -35 -3 -35 -29z m50 -1 c0 -13 -7 -20 -20 -20 -13 0 -20 7 -20 20 0 13
7 20 20 20 13 0 20 -7 20 -20z"/>
<path d="M930 2295 c0 -8 2 -15 4 -15 2 0 6 7 10 15 3 8 1 15 -4 15 -6 0 -10
-7 -10 -15z"/>
<path d="M1265 2300 c3 -5 8 -10 11 -10 2 0 4 5 4 10 0 6 -5 10 -11 10 -5 0
-7 -4 -4 -10z"/>
<path d="M1360 2280 c0 -16 4 -30 9 -30 4 0 6 12 3 26 -4 22 -2 25 19 22 14
-2 24 -10 24 -20 0 -9 4 -20 8 -24 4 -4 7 7 7 24 0 30 -2 32 -35 32 -32 0 -35
-2 -35 -30z"/>
<path d="M1501 2278 c2 -32 2 -32 6 -4 4 25 8 28 34 24 16 -3 29 -1 29 4 0 4
-16 8 -35 8 -33 0 -35 -2 -34 -32z"/>
<path d="M1931 2278 c2 -31 2 -31 6 -5 3 19 10 27 24 27 24 0 37 -29 18 -41
-11 -7 -11 -9 4 -9 12 0 17 8 17 30 0 28 -3 30 -35 30 -33 0 -35 -2 -34 -32z"/>
<path d="M2070 2280 c0 -28 3 -30 35 -30 32 0 35 2 35 30 0 28 -3 30 -35 30
-32 0 -35 -2 -35 -30z m60 0 c0 -13 -7 -20 -19 -20 -22 0 -35 15 -26 30 12 19
45 11 45 -10z"/>
<path d="M2220 2280 c0 -27 3 -30 33 -29 30 2 30 2 5 6 -32 5 -39 39 -10 46
13 4 11 5 -5 6 -19 1 -23 -4 -23 -29z"/>
<path d="M2272 2290 c0 -14 2 -19 5 -12 2 6 2 18 0 25 -3 6 -5 1 -5 -13z"/>
<path d="M2360 2281 c0 -22 5 -30 23 -33 35 -7 47 1 47 33 0 27 -3 29 -35 29
-32 0 -35 -3 -35 -29z m50 -1 c0 -13 -7 -20 -20 -20 -13 0 -20 7 -20 20 0 13
7 20 20 20 13 0 20 -7 20 -20z"/>
<path d="M2500 2281 c0 -30 18 -41 53 -33 11 2 17 13 17 33 0 27 -3 29 -35 29
-32 0 -35 -3 -35 -29z m60 -1 c0 -15 -7 -20 -25 -20 -18 0 -25 5 -25 20 0 15
7 20 25 20 18 0 25 -5 25 -20z"/>
<path d="M2650 2301 c0 -5 9 -7 20 -4 11 3 20 7 20 9 0 2 -9 4 -20 4 -11 0
-20 -4 -20 -9z"/>
<path d="M2700 2286 c0 -19 -6 -26 -27 -29 -26 -4 -26 -4 5 -6 29 -1 32 2 32
29 0 17 -2 30 -5 30 -3 0 -5 -11 -5 -24z"/>
<path d="M290 2204 c0 -34 1 -35 33 -32 28 3 32 7 35 36 3 31 2 32 -32 32 -35
0 -36 -1 -36 -36z m50 1 c0 -18 -5 -25 -19 -25 -13 0 -18 7 -18 25 0 18 5 25
18 25 14 0 19 -7 19 -25z"/>
<path d="M720 2205 c0 -32 2 -35 30 -35 22 0 30 5 29 18 0 10 -3 12 -6 5 -2
-7 -13 -13 -24 -13 -14 0 -19 7 -19 25 0 18 5 25 19 25 11 0 22 -6 24 -12 3
-8 6 -6 6 5 1 12 -7 17 -29 17 -28 0 -30 -3 -30 -35z"/>
<path d="M862 2203 c1 -37 1 -37 5 -6 3 19 11 34 21 36 12 3 10 5 -5 6 -20 1
-23 -3 -21 -36z"/>
<path d="M1318 2233 c6 -2 18 -2 25 0 6 3 1 5 -13 5 -14 0 -19 -2 -12 -5z"/>
<path d="M1430 2205 c0 -33 -2 -35 -35 -35 -34 0 -35 -1 -33 -37 l1 -38 4 34
c4 30 7 33 33 29 32 -5 40 6 40 49 0 22 3 25 30 21 17 -3 30 -1 30 4 0 4 -16
8 -35 8 -33 0 -35 -2 -35 -35z"/>
<path d="M2000 2205 c0 -26 -4 -35 -17 -36 -11 0 -13 -3 -5 -6 6 -2 12 -16 12
-29 0 -19 -5 -24 -24 -24 -13 0 -27 6 -29 13 -3 7 -6 5 -6 -5 -1 -14 -10 -18
-36 -18 -33 0 -35 -2 -35 -35 0 -33 2 -35 35 -35 33 0 35 -2 35 -35 0 -33 2
-35 35 -35 33 0 35 2 35 35 0 33 2 35 35 35 33 0 35 2 35 35 0 33 2 35 35 35
33 0 35 2 35 35 0 33 -2 35 -35 35 -33 0 -35 2 -35 35 0 33 -2 35 -35 35 -33
0 -35 -2 -35 -35z m60 0 c0 -20 -5 -25 -25 -25 -20 0 -25 5 -25 25 0 20 5 25
25 25 20 0 25 -5 25 -25z m10 -70 c0 -33 -2 -35 -35 -35 -33 0 -35 2 -35 35 0
33 2 35 35 35 33 0 35 -2 35 -35z m60 0 c0 -18 -5 -25 -19 -25 -24 0 -33 13
-25 34 10 27 44 20 44 -9z m-130 -70 c0 -33 -2 -35 -35 -35 -33 0 -35 2 -35
35 0 33 2 35 35 35 33 0 35 -2 35 -35z m-86 9 c10 -27 7 -34 -19 -34 -20 0
-25 5 -25 25 0 29 34 36 44 9z m146 -9 c0 -20 -5 -25 -25 -25 -20 0 -25 5 -25
25 0 20 5 25 25 25 20 0 25 -5 25 -25z m-70 -70 c0 -20 -5 -25 -25 -25 -43 0
-31 46 13 49 6 1 12 -10 12 -24z"/>
<path d="M2147 2218 c-5 -21 -5 -21 7 -5 20 26 46 22 46 -9 0 -23 -3 -26 -25
-22 -14 3 -25 1 -25 -3 0 -5 14 -9 30 -9 28 0 30 3 30 35 0 32 -3 35 -29 35
-21 0 -30 -6 -34 -22z"/>
<path d="M2292 2208 c-2 -36 0 -38 27 -38 20 0 31 6 33 18 7 31 -4 52 -26 51
-17 -1 -17 -2 -3 -6 25 -7 23 -53 -2 -53 -15 0 -21 8 -24 33 -4 31 -4 31 -5
-5z"/>
<path d="M2430 2205 c0 -33 -2 -35 -35 -35 -33 0 -35 -2 -35 -35 0 -33 2 -35
35 -35 33 0 35 -2 35 -35 0 -33 -2 -35 -35 -35 -33 0 -35 -2 -35 -35 0 -19 4
-35 8 -35 5 0 7 14 4 30 -4 27 -2 30 18 27 29 -5 38 -43 12 -50 -13 -4 -11 -5
6 -6 19 -1 22 4 22 34 0 33 2 35 35 35 33 0 35 -2 35 -35 0 -33 2 -35 35 -35
33 0 35 2 35 35 0 33 2 35 35 35 33 0 35 2 35 35 0 33 -2 35 -35 35 -33 0 -35
2 -35 35 0 33 2 35 35 35 33 0 35 2 35 35 0 30 -3 35 -22 34 -17 -1 -19 -2 -5
-6 10 -3 17 -14 17 -29 0 -19 -5 -24 -24 -24 -21 0 -24 4 -21 30 2 17 0 30 -5
30 -6 0 -10 -16 -10 -35 0 -33 -2 -35 -35 -35 -33 0 -35 2 -35 35 0 33 -2 35
-35 35 -33 0 -35 -2 -35 -35z m58 3 c-2 -15 -11 -24 -25 -26 -19 -3 -23 1 -23
22 0 21 5 26 26 26 21 0 25 -4 22 -22z m12 -73 c0 -33 -2 -35 -35 -35 -33 0
-35 2 -35 35 0 33 2 35 35 35 33 0 35 -2 35 -35z m-84 0 c2 -20 -3 -25 -22
-25 -19 0 -24 5 -24 25 0 19 5 25 23 25 16 0 22 -6 23 -25z m144 0 c0 -20 -5
-25 -25 -25 -20 0 -25 5 -25 25 0 20 5 25 25 25 20 0 25 -5 25 -25z m10 -70
c0 -33 -2 -35 -35 -35 -33 0 -35 2 -35 35 0 33 2 35 35 35 33 0 35 -2 35 -35z
m-80 0 c0 -20 -5 -25 -25 -25 -20 0 -25 5 -25 25 0 20 5 25 25 25 20 0 25 -5
25 -25z m140 0 c0 -20 -5 -25 -24 -25 -17 0 -23 5 -22 18 3 37 46 44 46 7z
m-70 -72 c0 -18 -6 -23 -25 -23 -18 0 -25 5 -25 18 0 24 7 31 31 29 13 -1 19
-9 19 -24z"/>
<path d="M1340 2184 c0 -8 5 -12 10 -9 6 4 8 11 5 16 -9 14 -15 11 -15 -7z"/>
<path d="M790 2135 c0 -32 2 -35 30 -35 17 0 30 4 30 9 0 4 -11 6 -25 3 -21
-4 -25 -1 -25 21 0 20 6 27 28 30 25 4 25 4 -5 6 -31 1 -33 -1 -33 -34z"/>
<path d="M2220 2135 c0 -33 2 -35 33 -34 30 2 30 2 5 6 -22 3 -28 10 -28 28 0
18 6 25 28 28 25 4 25 4 -5 6 -31 1 -33 -1 -33 -34z"/>
<path d="M2663 2163 c9 -2 25 -2 35 0 9 3 1 5 -18 5 -19 0 -27 -2 -17 -5z"/>
<path d="M1130 2131 c0 -14 -8 -21 -27 -24 -26 -4 -26 -4 5 -6 28 -1 32 2 32
24 0 14 -2 25 -5 25 -3 0 -5 -9 -5 -19z"/>
<path d="M2650 2108 c0 -5 14 -8 30 -8 17 0 30 3 30 8 0 4 -13 7 -30 7 -16 0
-30 -3 -30 -7z"/>
<path d="M720 2089 c0 -5 5 -7 10 -4 6 3 10 8 10 11 0 2 -4 4 -10 4 -5 0 -10
-5 -10 -11z"/>
<path d="M758 2093 c21 -8 15 -53 -7 -53 -11 0 -22 6 -24 13 -3 7 -6 5 -6 -5
-1 -13 7 -18 29 -18 28 0 30 3 30 35 0 27 -4 35 -17 34 -11 0 -13 -3 -5 -6z"/>
<path d="M1150 2090 c0 -5 7 -7 15 -4 8 4 15 8 15 10 0 2 -7 4 -15 4 -8 0 -15
-4 -15 -10z"/>
<path d="M1292 2063 c1 -37 1 -37 5 -6 3 26 9 33 31 36 24 4 24 4 -5 6 -32 1
-33 0 -31 -36z"/>
<path d="M2147 2078 c-5 -21 -5 -21 7 -5 20 26 46 22 46 -7 0 -19 -6 -26 -27
-29 -26 -4 -26 -4 5 -6 30 -1 32 1 32 34 0 32 -3 35 -29 35 -21 0 -30 -6 -34
-22z"/>
<path d="M2290 2065 c0 -33 2 -35 33 -34 30 2 30 2 5 6 -35 5 -41 48 -8 50 11
1 20 -4 20 -13 0 -8 4 -14 9 -14 5 0 7 9 4 20 -4 14 -14 20 -34 20 -26 0 -29
-3 -29 -35z"/>
<path d="M860 2045 c0 -8 4 -15 10 -15 5 0 7 7 4 15 -4 8 -8 15 -10 15 -2 0
-4 -7 -4 -15z"/>
<path d="M650 2019 c0 -6 8 -8 19 -4 13 4 23 0 30 -12 9 -16 10 -16 11 5 0 18
-5 22 -30 22 -16 0 -30 -5 -30 -11z"/>
<path d="M790 1995 c0 -33 2 -35 33 -35 32 0 33 1 29 35 -2 19 -7 35 -11 35
-4 0 -6 -13 -3 -30 4 -25 1 -30 -17 -30 -16 0 -21 6 -21 26 0 14 4 23 10 19 6
-3 10 -1 10 4 0 6 -7 11 -15 11 -10 0 -15 -11 -15 -35z"/>
<path d="M1265 2020 c3 -5 8 -10 11 -10 2 0 4 5 4 10 0 6 -5 10 -11 10 -5 0
-7 -4 -4 -10z"/>
<path d="M2077 2023 c-4 -3 -7 -19 -7 -35 0 -25 3 -28 35 -28 33 0 35 2 35 35
0 32 -3 35 -28 35 -16 0 -32 -3 -35 -7z m53 -28 c0 -18 -5 -25 -19 -25 -11 0
-23 5 -26 10 -11 18 3 40 25 40 15 0 20 -7 20 -25z"/>
<path d="M2220 2021 c0 -5 11 -8 25 -5 21 4 25 1 25 -20 0 -19 -6 -26 -27 -29
-26 -4 -26 -4 5 -6 30 -1 32 1 32 34 0 32 -2 35 -30 35 -16 0 -30 -4 -30 -9z"/>
<path d="M2650 2023 c0 -5 14 -8 30 -9 17 -1 30 3 30 7 0 5 -13 9 -30 9 -16 0
-30 -3 -30 -7z"/>
<path d="M647 1994 c-3 -3 -3 -12 0 -20 5 -14 63 -20 63 -6 0 4 -12 8 -27 7
-17 0 -27 5 -25 13 2 13 -1 15 -11 6z"/>
<path d="M2700 1981 c0 -5 -12 -12 -27 -14 -26 -4 -26 -4 5 -6 22 -1 32 3 32
14 0 8 -2 15 -5 15 -3 0 -5 -4 -5 -9z"/>
<path d="M487 1930 c5 -29 4 -31 -18 -28 -15 2 -26 12 -30 28 -6 23 -7 22 -8
-7 -1 -31 1 -33 34 -33 32 0 35 2 35 29 0 17 -4 33 -10 36 -6 4 -7 -6 -3 -25z"/>
<path d="M2056 1930 c6 -27 4 -30 -19 -30 -20 0 -27 6 -30 28 -4 25 -4 25 -6
-5 -1 -31 1 -33 34 -33 32 0 35 2 35 29 0 17 -4 33 -10 36 -6 4 -7 -6 -4 -25z"/>
<path d="M2297 1953 c-4 -3 -7 -19 -7 -35 0 -25 3 -28 33 -28 32 0 33 1 28 33
-5 31 -6 31 -9 5 -2 -20 -9 -28 -24 -28 -17 0 -20 4 -14 30 6 31 4 35 -7 23z"/>
<path d="M2478 1949 c21 -22 15 -49 -12 -49 -19 0 -26 6 -29 28 -4 25 -4 25
-6 -5 -1 -31 1 -33 34 -33 32 0 35 3 35 29 0 18 -6 31 -17 36 -15 5 -16 4 -5
-6z"/>
<path d="M291 1923 c-1 -31 1 -33 35 -33 32 0 35 2 32 27 -2 14 -8 28 -14 30
-7 2 -10 -6 -7 -22 4 -20 1 -25 -15 -25 -15 0 -22 8 -25 28 -4 25 -4 25 -6 -5z"/>
<path d="M570 1920 c0 -28 3 -30 35 -30 33 0 35 2 34 33 -2 30 -2 30 -6 5 -3
-21 -10 -28 -28 -28 -19 0 -23 5 -20 25 1 14 -2 25 -6 25 -5 0 -9 -13 -9 -30z"/>
<path d="M721 1923 c-1 -30 2 -33 29 -33 27 0 30 3 29 33 -2 30 -2 30 -6 5 -3
-19 -10 -28 -23 -28 -13 0 -20 9 -23 28 -4 25 -4 25 -6 -5z"/>
<path d="M861 1923 c-1 -31 1 -33 34 -33 32 0 35 2 35 30 0 17 -4 30 -9 30 -5
0 -8 -11 -5 -25 4 -21 1 -25 -20 -25 -19 0 -26 6 -29 28 -4 25 -4 25 -6 -5z"/>
<path d="M2151 1934 c0 -11 3 -14 6 -6 3 7 2 16 -1 19 -3 4 -6 -2 -5 -13z"/>
<path d="M2198 1920 c-3 -16 -1 -30 4 -30 4 0 8 14 8 30 0 17 -2 30 -4 30 -2
0 -6 -13 -8 -30z"/>
<path d="M2570 1920 c0 -28 3 -30 35 -30 33 0 35 2 34 33 -2 30 -2 30 -6 5 -3
-22 -10 -28 -30 -28 -22 0 -25 4 -21 25 3 14 1 25 -3 25 -5 0 -9 -13 -9 -30z"/>
<path d="M2158 1893 c7 -3 16 -2 19 1 4 3 -2 6 -13 5 -11 0 -14 -3 -6 -6z"/>
<path d="M360 1850 c0 -16 4 -30 9 -30 4 0 6 11 3 25 -4 22 -1 25 22 25 19 0
26 -5 26 -19 0 -11 -6 -22 -12 -24 -8 -3 -6 -6 5 -6 12 -1 17 7 17 29 0 28 -3
30 -35 30 -32 0 -35 -2 -35 -30z"/>
<path d="M500 1850 c0 -22 5 -30 18 -29 10 0 12 3 5 6 -7 2 -13 13 -13 24 0
14 7 19 25 19 18 0 25 -5 25 -19 0 -11 -6 -22 -12 -24 -8 -3 -6 -6 5 -6 12 -1
17 7 17 29 0 28 -3 30 -35 30 -32 0 -35 -2 -35 -30z"/>
<path d="M650 1871 c0 -4 12 -6 26 -3 25 4 26 3 22 -22 -3 -14 -1 -26 3 -26 5
0 9 14 9 30 0 27 -3 30 -30 30 -16 0 -30 -4 -30 -9z"/>
<path d="M790 1850 c0 -16 4 -30 9 -30 4 0 6 11 3 25 -3 20 0 25 16 25 15 0
22 -8 24 -27 3 -27 4 -27 9 5 5 31 4 32 -28 32 -30 0 -33 -3 -33 -30z"/>
<path d="M930 1871 c0 -5 9 -7 20 -4 11 3 20 7 20 9 0 2 -9 4 -20 4 -11 0 -20
-4 -20 -9z"/>
<path d="M1360 1863 c0 -14 2 -15 9 -5 14 22 46 10 44 -16 -2 -12 2 -22 7 -22
6 0 10 14 10 30 0 28 -3 30 -35 30 -27 0 -35 -4 -35 -17z"/>
<path d="M1650 1873 c0 -5 14 -8 30 -8 17 0 30 3 30 8 0 4 -13 7 -30 7 -16 0
-30 -3 -30 -7z"/>
<path d="M2070 1850 c0 -28 3 -30 35 -30 32 0 35 2 35 30 0 28 -3 30 -35 30
-32 0 -35 -2 -35 -30z m60 0 c0 -14 -7 -20 -23 -20 -16 0 -23 6 -24 20 -1 15
4 20 23 20 17 0 24 -5 24 -20z"/>
<path d="M2221 1848 c2 -31 2 -31 6 -5 3 19 10 27 25 27 16 0 19 -5 16 -25 -3
-14 -1 -25 3 -25 5 0 9 14 9 30 0 27 -3 30 -30 30 -27 0 -30 -3 -29 -32z"/>
<path d="M2360 1850 c0 -28 3 -30 35 -30 32 0 35 2 35 30 0 28 -3 30 -35 30
-32 0 -35 -2 -35 -30z m58 -2 c3 -13 -3 -18 -22 -18 -20 0 -26 5 -26 21 0 15
5 20 22 17 13 -2 24 -11 26 -20z"/>
<path d="M2500 1850 c0 -28 3 -30 35 -30 32 0 35 2 35 30 0 28 -3 30 -35 30
-32 0 -35 -2 -35 -30z m60 0 c0 -15 -7 -20 -25 -20 -18 0 -25 5 -25 20 0 15 7
20 25 20 18 0 25 -5 25 -20z"/>
<path d="M2650 1869 c0 -5 5 -7 10 -4 6 3 10 8 10 11 0 2 -4 4 -10 4 -5 0 -10
-5 -10 -11z"/>
<path d="M2688 1873 c24 -9 13 -41 -15 -46 -26 -4 -26 -4 5 -6 29 -1 32 2 32
29 0 22 -5 30 -17 29 -11 0 -13 -3 -5 -6z"/>
<path d="M1070 1835 c0 -8 4 -15 10 -15 5 0 7 7 4 15 -4 8 -8 15 -10 15 -2 0
-4 -7 -4 -15z"/>
<path d="M1131 1834 c0 -11 3 -14 6 -6 3 7 2 16 -1 19 -3 4 -6 -2 -5 -13z"/>
<path d="M1692 1835 c-11 -12 -10 -15 3 -15 8 0 15 7 15 15 0 18 -2 18 -18 0z"/>
<path d="M1650 1830 c0 -5 5 -10 11 -10 5 0 7 5 4 10 -3 6 -8 10 -11 10 -2 0
-4 -4 -4 -10z"/>
<path d="M290 1801 c0 -4 11 -6 25 -3 22 4 25 1 25 -27 0 -19 4 -30 10 -26 6
3 10 19 10 36 0 27 -3 29 -35 29 -19 0 -35 -4 -35 -9z"/>
<path d="M430 1775 c0 -33 -2 -35 -35 -35 -33 0 -35 -2 -35 -35 0 -33 2 -35
35 -35 33 0 35 -2 35 -35 0 -33 -2 -35 -34 -35 -32 0 -35 3 -38 33 -3 29 -6
32 -38 33 -26 1 -28 1 -7 -3 21 -3 27 -10 27 -29 0 -32 -37 -34 -43 -1 -4 19
-4 18 -6 -5 -1 -26 2 -28 34 -28 33 0 35 -2 35 -35 0 -33 2 -35 35 -35 33 0
35 -2 35 -35 0 -33 2 -35 35 -35 33 0 35 2 35 35 0 33 2 35 35 35 33 0 35 2
35 35 0 33 2 35 35 35 33 0 35 2 35 35 0 33 -2 35 -35 35 -33 0 -35 2 -35 35
0 19 5 35 10 35 6 0 8 13 5 30 -5 27 -3 30 21 30 23 0 26 -3 22 -25 -3 -14 -1
-28 3 -31 5 -3 9 11 9 30 0 34 -2 36 -35 36 -33 0 -35 -2 -35 -35 0 -33 -2
-35 -35 -35 -33 0 -35 2 -35 35 0 30 -3 35 -22 34 -17 -1 -19 -2 -5 -6 9 -2
17 -13 17 -24 0 -14 -7 -19 -26 -19 -23 0 -26 3 -22 25 3 14 1 25 -3 25 -5 0
-9 -16 -9 -35z m68 -67 c3 -37 3 -38 -32 -38 -34 0 -36 2 -36 34 0 36 11 46
45 43 15 -2 21 -10 23 -39z m-80 -3 c1 -21 -3 -25 -23 -25 -20 0 -25 5 -25 25
0 19 5 25 23 25 17 0 23 -6 25 -25z m142 0 c0 -20 -5 -25 -25 -25 -20 0 -25 5
-25 25 0 20 5 25 25 25 20 0 25 -5 25 -25z m10 -70 c0 -33 -2 -35 -35 -35 -33
0 -35 2 -35 35 0 33 2 35 35 35 33 0 35 -2 35 -35z m-80 0 c0 -20 -5 -25 -25
-25 -20 0 -25 5 -25 25 0 20 5 25 25 25 20 0 25 -5 25 -25z m140 0 c0 -20 -5
-25 -24 -25 -18 0 -23 5 -23 25 0 20 5 25 23 25 19 0 24 -5 24 -25z m-130 -70
c0 -33 -2 -35 -35 -35 -33 0 -35 2 -35 35 0 33 2 35 35 35 33 0 35 -2 35 -35z
m-85 0 c0 -13 -8 -21 -22 -23 -19 -3 -23 1 -23 21 0 19 5 24 23 23 15 -1 22
-7 22 -21z m143 -3 c3 -18 -1 -22 -22 -22 -19 0 -26 5 -26 18 0 39 43 43 48 4z
m-68 -69 c0 -18 -6 -23 -25 -23 -19 0 -25 5 -25 23 0 18 6 23 25 23 19 0 25
-5 25 -23z"/>
<path d="M720 1774 c0 -19 4 -33 9 -30 4 3 6 17 3 31 -3 20 0 25 16 25 16 0
22 -8 25 -32 4 -32 4 -32 5 5 2 35 0 37 -28 37 -28 0 -30 -3 -30 -36z"/>
<path d="M1046 1803 c5 -5 12 -12 16 -18 4 -6 8 -2 8 8 0 9 -7 17 -17 17 -9 0
-12 -3 -7 -7z"/>
<path d="M1430 1775 c0 -33 -2 -35 -35 -35 -33 0 -35 -2 -35 -35 0 -27 4 -35
18 -34 10 0 12 3 5 6 -7 2 -13 16 -13 29 0 32 37 33 50 2 8 -22 9 -22 9 5 1
15 5 27 11 27 5 0 7 13 4 30 -6 27 -4 30 19 30 21 0 25 -4 22 -25 -1 -14 2
-28 6 -31 5 -3 10 -17 10 -32 2 -24 2 -24 6 -4 3 15 11 22 28 22 17 0 25 -7
28 -22 4 -20 4 -19 6 5 1 24 5 27 36 27 33 0 35 2 35 35 0 19 -4 35 -9 35 -4
0 -6 -11 -3 -25 4 -21 1 -25 -21 -25 -14 0 -28 6 -30 13 -3 6 -6 2 -6 -10 -1
-19 -7 -23 -36 -23 -33 0 -35 2 -35 35 0 33 -2 35 -35 35 -33 0 -35 -2 -35
-35z"/>
<path d="M1722 1778 c2 -28 8 -34 31 -36 25 -3 27 -1 27 32 0 33 -2 36 -31 36
-28 0 -30 -2 -27 -32z m46 0 c-2 -13 -10 -23 -18 -23 -8 0 -16 10 -18 23 -3
17 2 22 18 22 16 0 21 -5 18 -22z"/>
<path d="M2173 1803 c22 -4 28 -9 25 -26 -2 -16 -9 -21 -26 -20 -12 2 -22 -2
-22 -7 0 -6 14 -10 30 -10 28 0 30 3 30 35 0 33 -2 35 -32 34 -32 -2 -32 -2
-5 -6z"/>
<path d="M2292 1778 c2 -27 8 -34 29 -36 24 -3 27 1 31 32 4 35 3 36 -30 36
-32 0 -33 -2 -30 -32z m48 2 c0 -13 -7 -20 -20 -20 -13 0 -20 7 -20 20 0 13 7
20 20 20 13 0 20 -7 20 -20z"/>
<path d="M2430 1775 c0 -33 -2 -35 -35 -35 -33 0 -35 -2 -35 -35 0 -33 -2 -35
-35 -35 -33 0 -35 -2 -35 -35 0 -33 2 -35 35 -35 33 0 35 -2 35 -35 0 -33 2
-35 35 -35 33 0 35 -2 35 -35 0 -33 2 -35 35 -35 33 0 35 2 35 35 0 33 2 35
35 35 33 0 35 2 35 35 0 33 2 35 35 35 33 0 35 2 35 35 0 33 -2 35 -35 35 -33
0 -35 2 -35 35 0 33 2 35 35 35 33 0 35 2 35 35 0 33 -2 35 -35 35 -33 0 -35
-2 -35 -35 0 -33 -2 -35 -35 -35 -33 0 -35 2 -35 35 0 33 -2 35 -35 35 -33 0
-35 -2 -35 -35z m58 0 c-3 -14 -1 -28 3 -31 5 -3 9 -21 9 -40 0 -32 -2 -34
-35 -34 -33 0 -35 2 -35 35 0 19 4 35 10 35 5 0 7 13 4 30 -6 27 -4 30 21 30
24 0 27 -3 23 -25z m142 5 c0 -13 -7 -20 -20 -20 -13 0 -20 7 -20 20 0 13 7
20 20 20 13 0 20 -7 20 -20z m-212 -75 c-2 -12 -12 -21 -25 -23 -19 -3 -23 1
-23 22 0 21 4 25 25 24 20 -2 25 -7 23 -23z m142 0 c0 -20 -5 -25 -25 -25 -20
0 -25 5 -25 25 0 20 5 25 25 25 20 0 25 -5 25 -25z m-130 -70 c0 -33 -2 -35
-35 -35 -33 0 -35 2 -35 35 0 33 2 35 35 35 33 0 35 -2 35 -35z m140 0 c0 -33
-2 -35 -35 -35 -33 0 -35 2 -35 35 0 33 2 35 35 35 33 0 35 -2 35 -35z m-230
0 c0 -18 -5 -25 -20 -25 -15 0 -20 7 -20 25 0 18 5 25 20 25 15 0 20 -7 20
-25z m150 0 c0 -20 -5 -25 -25 -25 -20 0 -25 5 -25 25 0 20 5 25 25 25 20 0
25 -5 25 -25z m140 0 c0 -20 -5 -25 -24 -25 -18 0 -23 5 -23 25 0 20 5 25 23
25 19 0 24 -5 24 -25z m-130 -70 c0 -33 -2 -35 -35 -35 -33 0 -35 2 -35 35 0
33 2 35 35 35 33 0 35 -2 35 -35z m-91 15 c4 0 7 -9 7 -20 0 -14 -7 -20 -23
-20 -18 0 -23 6 -23 26 0 20 4 25 16 20 9 -3 19 -6 23 -6z m151 -15 c0 -20 -5
-25 -24 -25 -18 0 -23 5 -23 25 0 20 5 25 23 25 19 0 24 -5 24 -25z m-70 -70
c0 -20 -5 -25 -25 -25 -43 0 -31 46 13 49 6 1 12 -10 12 -24z"/>
<path d="M290 1768 c0 -9 5 -20 10 -23 13 -8 13 5 0 25 -8 13 -10 13 -10 -2z"/>
<path d="M1861 1754 c0 -11 3 -14 6 -6 3 7 2 16 -1 19 -3 4 -6 -2 -5 -13z"/>
<path d="M650 1731 c0 -4 11 -6 25 -3 22 4 25 1 25 -23 0 -24 -3 -27 -25 -23
-14 3 -25 1 -25 -3 0 -5 14 -9 30 -9 28 0 30 3 30 35 0 32 -2 35 -30 35 -16 0
-30 -4 -30 -9z"/>
<path d="M791 1723 c0 -11 3 -13 6 -5 2 6 13 12 24 12 14 0 19 -7 19 -25 0
-18 -5 -25 -19 -25 -11 0 -22 6 -24 13 -3 7 -6 5 -6 -5 -1 -13 7 -18 29 -18
28 0 30 3 30 35 0 32 -2 35 -30 35 -22 0 -30 -5 -29 -17z"/>
<path d="M1650 1731 c0 -4 11 -6 24 -4 19 4 25 0 29 -18 4 -22 4 -22 6 4 1 24
-3 27 -29 27 -16 0 -30 -4 -30 -9z"/>
<path d="M1790 1706 c0 -34 2 -36 35 -36 33 0 35 -2 35 -35 0 -33 2 -35 35
-35 33 0 35 -2 35 -33 0 -42 -3 -45 -39 -39 -25 3 -30 9 -33 36 -3 27 -7 31
-35 34 -32 3 -33 2 -33 -32 0 -34 2 -36 35 -36 33 0 35 -2 35 -35 0 -33 2 -35
35 -35 33 0 35 2 35 35 0 33 2 35 35 35 33 0 35 -2 35 -35 0 -33 2 -35 35 -35
33 0 35 2 35 35 0 33 2 35 38 37 36 1 36 1 5 5 -23 3 -33 10 -36 26 -4 18 -5
17 -6 -5 -1 -23 -6 -28 -28 -29 -27 0 -27 -1 -5 -9 31 -13 30 -50 -2 -50 -20
0 -24 6 -30 46 -10 78 -9 84 22 85 22 1 23 2 5 6 -13 2 -24 13 -26 26 -4 18
-5 17 -6 -5 -1 -25 -5 -28 -36 -28 -33 0 -35 2 -35 35 0 27 4 35 18 35 10 0
13 3 6 8 -6 4 -14 14 -17 22 -4 10 -6 8 -6 -7 -1 -19 -7 -23 -35 -23 -32 0
-35 3 -38 33 -3 28 -7 32 -35 35 -32 3 -33 2 -33 -32z m50 -1 c0 -18 -5 -25
-20 -25 -15 0 -20 7 -20 25 0 18 5 25 20 25 15 0 20 -7 20 -25z m75 -72 c1
-18 -4 -23 -22 -23 -18 0 -23 5 -23 26 0 20 4 25 22 22 14 -2 22 -11 23 -25z
m-75 -68 c0 -18 -5 -25 -20 -25 -20 0 -28 28 -13 43 15 16 33 6 33 -18z m150
0 c0 -20 -5 -25 -25 -25 -30 0 -36 36 -7 43 31 8 32 7 32 -18z m-85 -53 c21
-15 14 -42 -11 -42 -17 0 -24 6 -24 18 0 29 15 39 35 24z"/>
<path d="M2220 1705 c0 -32 2 -35 30 -35 28 0 30 3 30 35 0 32 -2 35 -30 35
-28 0 -30 -3 -30 -35z m50 0 c0 -18 -5 -25 -20 -25 -15 0 -20 7 -20 25 0 18 5
25 20 25 15 0 20 -7 20 -25z"/>
<path d="M2651 1723 c0 -11 3 -13 6 -5 2 6 13 12 23 12 10 0 21 -6 23 -12 3
-8 6 -6 6 5 1 12 -7 17 -29 17 -22 0 -30 -5 -29 -17z"/>
<path d="M2650 1688 c0 -13 8 -18 30 -18 17 0 30 4 30 9 0 5 -9 7 -21 4 -12
-4 -25 0 -30 8 -7 11 -9 10 -9 -3z"/>
<path d="M720 1635 c0 -32 2 -35 30 -35 25 0 30 4 29 23 -1 16 -2 18 -6 5 -2
-10 -13 -18 -24 -18 -14 0 -19 7 -19 26 0 23 3 26 25 22 14 -3 25 -1 25 3 0 5
-13 9 -30 9 -28 0 -30 -3 -30 -35z"/>
<path d="M861 1648 c1 -18 2 -19 6 -5 7 26 45 18 49 -9 3 -19 -1 -22 -26 -20
-17 1 -30 -1 -30 -6 0 -4 16 -8 35 -8 33 0 35 -2 35 -33 0 -42 -3 -45 -39 -39
-25 3 -30 9 -33 36 -3 27 -7 31 -35 34 -29 3 -33 0 -33 -20 1 -20 2 -21 11 -5
15 26 39 21 39 -9 0 -23 -3 -26 -25 -22 -14 3 -25 1 -25 -3 0 -5 16 -9 35 -9
33 0 35 -2 35 -35 0 -19 4 -35 9 -35 4 0 6 11 4 24 -5 27 7 39 31 30 20 -8 17
-36 -4 -46 -11 -5 -9 -7 8 -7 19 -1 22 4 22 34 0 33 2 35 35 35 33 0 35 -2 35
-35 0 -33 2 -35 35 -35 32 0 35 2 34 28 -2 23 -2 24 -6 5 -3 -16 -11 -23 -29
-23 -27 0 -33 27 -11 49 10 10 9 12 -3 9 -19 -4 -27 61 -9 72 6 4 -9 6 -34 3
l-46 -5 -3 33 c-3 30 -7 34 -35 37 -29 3 -33 0 -32 -20z m129 -83 c0 -20 -5
-25 -25 -25 -43 0 -31 46 13 49 6 1 12 -10 12 -24z"/>
<path d="M1290 1653 c0 -14 2 -15 9 -4 5 8 19 12 35 9 14 -3 23 -1 20 3 -3 5
-18 9 -35 9 -21 0 -29 -5 -29 -17z"/>
<path d="M1756 1663 c5 -5 12 -12 16 -18 4 -6 8 -2 8 8 0 9 -7 17 -17 17 -9 0
-12 -3 -7 -7z"/>
<path d="M1400 1605 l0 -55 165 0 165 0 0 55 0 55 -165 0 -165 0 0 -55z m248
15 c35 0 42 -3 42 -20 0 -19 -7 -20 -130 -20 -121 0 -130 1 -130 19 0 25 5 26
97 24 43 -1 97 -2 121 -3z"/>
<path d="M1290 1618 c0 -13 8 -18 30 -18 17 0 30 4 30 9 0 5 -9 7 -21 4 -12
-4 -25 0 -30 8 -7 11 -9 10 -9 -3z"/>
<path d="M1766 1615 c-3 -8 -1 -15 4 -15 6 0 10 7 10 15 0 8 -2 15 -4 15 -2 0
-6 -7 -10 -15z"/>
<path d="M650 1592 c0 -5 10 -8 23 -8 15 1 23 -5 25 -21 3 -17 -3 -22 -25 -26
-27 -4 -27 -4 5 -6 30 -1 32 1 32 34 0 32 -2 35 -30 35 -16 0 -30 -4 -30 -8z"/>
<path d="M1220 1565 c0 -32 2 -35 30 -35 28 0 30 3 30 35 0 32 -2 35 -30 35
-28 0 -30 -3 -30 -35z m50 -2 c0 -16 -6 -23 -20 -23 -14 0 -20 7 -20 23 0 16
6 23 20 23 14 0 20 -7 20 -23z"/>
<path d="M1360 1565 c0 -19 4 -35 8 -35 4 0 6 16 4 35 -2 19 -6 35 -8 35 -2 0
-4 -16 -4 -35z"/>
<path d="M2248 1593 c34 -7 30 -50 -5 -56 -26 -4 -26 -4 5 -6 30 -1 32 1 32
34 0 32 -2 35 -27 34 -24 -2 -25 -2 -5 -6z"/>
<path d="M2646 1585 c-4 -13 -2 -13 14 -5 29 16 40 12 40 -14 0 -21 -6 -25
-32 -28 -29 -3 -33 -7 -36 -35 -3 -27 -7 -33 -28 -33 -22 0 -24 3 -19 31 4 19
2 28 -5 24 -5 -3 -10 -19 -10 -36 0 -27 3 -29 35 -29 33 0 35 2 35 35 0 33 2
35 35 35 33 0 35 2 35 35 0 32 -3 35 -29 35 -17 0 -31 -6 -35 -15z"/>
<path d="M290 1493 c0 -31 2 -33 36 -33 34 0 35 1 32 32 -3 28 -7 31 -36 32
-30 1 -32 -1 -32 -31z m50 -3 c0 -13 -7 -20 -20 -20 -13 0 -20 7 -20 20 0 13
7 20 20 20 13 0 20 -7 20 -20z"/>
<path d="M629 1523 c-1 -5 0 -18 1 -30 1 -19 -4 -23 -25 -23 -24 0 -27 3 -23
25 3 14 1 25 -3 25 -5 0 -9 -13 -9 -30 0 -28 3 -30 35 -30 33 0 35 2 35 35 0
30 -8 50 -11 28z"/>
<path d="M720 1495 c0 -32 2 -35 30 -35 28 0 30 3 30 35 0 28 -3 33 -17 28
-11 -4 -12 -8 -5 -11 22 -7 14 -42 -9 -42 -18 0 -21 5 -17 30 3 17 1 30 -4 30
-4 0 -8 -16 -8 -35z"/>
<path d="M1188 1523 c6 -2 12 -15 12 -28 0 -18 -6 -25 -27 -28 -26 -4 -26 -4
5 -6 30 -1 32 1 32 34 0 27 -4 35 -17 34 -11 0 -13 -3 -5 -6z"/>
<path d="M1290 1495 c0 -33 2 -35 35 -35 32 0 35 2 35 29 0 17 -4 33 -10 36
-6 4 -10 -7 -10 -24 0 -24 -4 -31 -20 -31 -25 0 -26 28 -2 46 16 12 15 13 -5
14 -20 0 -23 -5 -23 -35z"/>
<path d="M1750 1520 c0 -5 5 -10 10 -10 6 0 10 -9 10 -20 0 -33 -38 -26 -43 8
-4 25 -4 25 -6 -5 -1 -30 2 -33 29 -33 28 0 30 3 30 35 0 24 -5 35 -15 35 -8
0 -15 -4 -15 -10z"/>
<path d="M2198 1501 c4 -27 1 -30 -29 -34 l-34 -4 38 -1 c36 -2 37 -1 37 33 0
19 -4 35 -8 35 -5 0 -7 -13 -4 -29z"/>
<path d="M2291 1503 c0 -27 1 -27 9 -5 13 30 40 29 40 -3 0 -20 -5 -25 -27
-26 -25 -2 -26 -2 -5 -6 38 -7 49 2 44 36 -4 26 -9 31 -33 31 -25 0 -29 -4
-28 -27z"/>
<path d="M1431 1493 c-1 -31 1 -33 34 -33 33 0 35 2 34 33 -2 31 -2 31 -6 4
-4 -22 -9 -28 -26 -25 -13 2 -24 13 -28 28 -6 23 -7 22 -8 -7z"/>
<path d="M1571 1493 c-1 -31 1 -33 34 -33 33 0 35 2 34 33 -2 30 -2 30 -6 5
-3 -22 -10 -28 -28 -28 -18 0 -25 6 -28 28 -4 25 -4 25 -6 -5z"/>
<path d="M360 1420 c0 -16 4 -30 9 -30 4 0 6 11 3 25 -4 22 -1 25 22 25 20 0
26 -4 24 -17 -2 -10 -10 -21 -18 -25 -11 -5 -9 -7 8 -7 18 -1 22 4 22 29 0 28
-3 30 -35 30 -32 0 -35 -2 -35 -30z"/>
<path d="M500 1420 c0 -28 3 -30 35 -30 32 0 35 2 35 30 0 28 -3 30 -35 30
-32 0 -35 -2 -35 -30z m60 0 c0 -15 -7 -20 -25 -20 -18 0 -25 5 -25 20 0 15 7
20 25 20 18 0 25 -5 25 -20z"/>
<path d="M672 1443 c20 -3 28 -11 31 -31 4 -24 4 -24 6 6 1 30 -1 32 -31 31
-30 -2 -30 -2 -6 -6z"/>
<path d="M790 1420 c0 -28 3 -30 35 -30 32 0 35 2 35 30 0 28 -3 30 -35 30
-32 0 -35 -2 -35 -30z m53 14 c11 -11 -5 -34 -24 -34 -12 0 -19 7 -19 20 0 19
28 28 43 14z"/>
<path d="M930 1420 c0 -28 3 -30 35 -30 32 0 35 2 35 30 0 28 -3 30 -35 30
-32 0 -35 -2 -35 -30z m60 0 c0 -15 -7 -20 -25 -20 -18 0 -25 5 -25 20 0 15 7
20 25 20 18 0 25 -5 25 -20z"/>
<path d="M1070 1420 c0 -28 3 -30 35 -30 32 0 35 2 35 30 0 28 -3 30 -35 30
-32 0 -35 -2 -35 -30z m60 0 c0 -15 -7 -20 -25 -20 -18 0 -25 5 -25 20 0 15 7
20 25 20 18 0 25 -5 25 -20z"/>
<path d="M1220 1420 c0 -27 3 -30 30 -30 27 0 30 3 30 30 0 27 -3 30 -30 30
-27 0 -30 -3 -30 -30z m50 0 c0 -13 -7 -20 -20 -20 -13 0 -20 7 -20 20 0 13 7
20 20 20 13 0 20 -7 20 -20z"/>
<path d="M1360 1420 c0 -28 3 -30 35 -30 32 0 35 2 35 30 0 28 -3 30 -35 30
-32 0 -35 -2 -35 -30z m57 0 c-1 -14 -8 -20 -24 -20 -16 0 -23 6 -23 20 0 15
7 20 24 20 19 0 24 -5 23 -20z"/>
<path d="M1500 1420 c0 -28 3 -30 35 -30 32 0 35 2 35 30 0 28 -3 30 -35 30
-32 0 -35 -2 -35 -30z m60 0 c0 -15 -7 -20 -25 -20 -18 0 -25 5 -25 20 0 15 7
20 25 20 18 0 25 -5 25 -20z"/>
<path d="M1673 1443 c18 -3 27 -10 27 -23 0 -13 -9 -20 -27 -23 -26 -4 -26 -4
5 -6 29 -1 32 2 32 29 0 27 -3 30 -32 29 -31 -2 -31 -2 -5 -6z"/>
<path d="M1790 1420 c0 -28 3 -30 35 -30 32 0 35 2 35 30 0 28 -3 30 -35 30
-32 0 -35 -2 -35 -30z m50 0 c0 -13 -7 -20 -20 -20 -13 0 -20 7 -20 20 0 13 7
20 20 20 13 0 20 -7 20 -20z"/>
<path d="M1930 1420 c0 -28 3 -30 35 -30 32 0 35 2 35 30 0 28 -3 30 -35 30
-32 0 -35 -2 -35 -30z m60 0 c0 -15 -7 -20 -25 -20 -18 0 -25 5 -25 20 0 15 7
20 25 20 18 0 25 -5 25 -20z"/>
<path d="M2070 1420 c0 -28 3 -30 35 -30 32 0 35 2 35 30 0 28 -3 30 -35 30
-32 0 -35 -2 -35 -30z m60 0 c0 -15 -7 -20 -24 -20 -19 0 -24 5 -23 20 1 14 8
20 24 20 16 0 23 -6 23 -20z"/>
<path d="M2221 1423 c-1 -30 2 -33 29 -33 27 0 30 3 30 30 0 25 -4 30 -22 29
-17 -1 -19 -2 -5 -6 24 -6 22 -43 -2 -43 -14 0 -21 8 -24 28 -4 25 -4 25 -6
-5z"/>
<path d="M2360 1420 c0 -28 3 -30 35 -30 32 0 35 2 35 30 0 28 -3 30 -35 30
-32 0 -35 -2 -35 -30z m60 0 c0 -15 -7 -20 -25 -20 -18 0 -25 5 -25 20 0 15 7
20 25 20 18 0 25 -5 25 -20z"/>
<path d="M2500 1420 c0 -16 4 -30 9 -30 4 0 6 11 3 25 -4 22 -1 25 22 25 19 0
26 -5 26 -19 0 -11 -8 -22 -17 -24 -14 -4 -12 -5 5 -6 18 -1 22 4 22 29 0 28
-3 30 -35 30 -32 0 -35 -2 -35 -30z"/>
<path d="M2650 1439 c0 -5 5 -7 10 -4 6 3 10 8 10 11 0 2 -4 4 -10 4 -5 0 -10
-5 -10 -11z"/>
<path d="M2697 1426 c4 -21 1 -25 -23 -29 -28 -4 -28 -4 4 -6 29 -1 32 2 32
29 0 17 -4 30 -9 30 -4 0 -6 -11 -4 -24z"/>
<path d="M313 1373 c28 -5 39 -36 15 -47 -7 -3 -4 -5 7 -3 14 1 21 11 23 30 3
25 1 27 -35 26 -30 -2 -32 -3 -10 -6z"/>
<path d="M430 1350 c0 -16 4 -30 9 -30 4 0 6 11 3 25 -4 22 -1 25 22 25 19 0
26 -5 26 -19 0 -11 -6 -22 -12 -24 -8 -3 -6 -6 5 -6 12 -1 17 7 17 29 0 28 -3
30 -35 30 -32 0 -35 -2 -35 -30z"/>
<path d="M570 1350 c0 -16 4 -30 9 -30 4 0 6 11 3 25 -4 22 -1 25 23 25 24 0
27 -3 23 -25 -3 -14 -1 -25 3 -25 5 0 9 14 9 30 0 28 -3 30 -35 30 -32 0 -35
-2 -35 -30z"/>
<path d="M720 1351 c0 -19 6 -30 18 -33 29 -8 42 2 42 33 0 21 -5 29 -17 28
-11 0 -13 -3 -5 -6 21 -8 14 -43 -9 -43 -17 0 -20 5 -17 25 3 14 1 25 -3 25
-5 0 -9 -13 -9 -29z"/>
<path d="M860 1350 c0 -16 4 -30 9 -30 4 0 6 11 3 25 -4 22 -1 25 23 25 24 0
27 -3 23 -25 -3 -14 -1 -25 3 -25 5 0 9 14 9 30 0 28 -3 30 -35 30 -32 0 -35
-2 -35 -30z"/>
<path d="M1000 1350 c0 -22 5 -30 18 -29 10 0 12 3 5 6 -7 2 -13 13 -13 24 0
13 7 19 24 19 21 0 25 -6 32 -57 4 -32 9 -48 12 -35 2 15 10 22 27 22 17 0 25
-7 28 -22 4 -20 4 -19 6 5 1 25 -2 27 -34 27 -33 0 -35 2 -35 35 0 33 -2 35
-35 35 -32 0 -35 -2 -35 -30z"/>
<path d="M1150 1371 c0 -4 11 -6 25 -3 21 3 25 0 25 -18 0 -18 -4 -21 -25 -18
-25 5 -35 -7 -12 -15 27 -9 47 5 47 34 0 26 -4 29 -30 29 -16 0 -30 -4 -30 -9z"/>
<path d="M1290 1350 c0 -28 3 -30 35 -30 32 0 35 2 35 30 0 28 -3 30 -35 30
-32 0 -35 -2 -35 -30z m50 -1 c0 -14 -5 -19 -17 -17 -26 5 -29 38 -4 38 15 0
21 -6 21 -21z"/>
<path d="M1430 1350 c0 -16 4 -30 9 -30 4 0 6 11 3 25 -4 22 -1 25 23 25 25 0
27 -2 21 -30 -3 -19 -2 -29 4 -25 6 3 10 19 10 36 0 27 -3 29 -35 29 -32 0
-35 -2 -35 -30z"/>
<path d="M1570 1351 c0 -25 4 -29 35 -33 34 -4 35 -3 35 29 0 31 -2 33 -35 33
-32 0 -35 -3 -35 -29z m60 -1 c0 -15 -7 -20 -25 -20 -18 0 -25 5 -25 20 0 15
7 20 25 20 18 0 25 -5 25 -20z"/>
<path d="M1720 1350 c0 -23 4 -30 20 -30 11 0 20 4 20 10 0 5 -7 7 -15 4 -10
-4 -15 0 -15 15 0 33 38 28 43 -6 4 -26 4 -26 6 5 1 29 -2 32 -29 32 -27 0
-30 -3 -30 -30z"/>
<path d="M1860 1350 c0 -16 3 -30 8 -30 4 0 7 14 7 30 0 17 -3 30 -7 30 -5 0
-8 -13 -8 -30z"/>
<path d="M1912 1360 c11 -17 10 -22 -2 -30 -13 -8 -12 -10 3 -10 12 0 17 8 17
30 0 20 -5 30 -15 30 -13 0 -13 -3 -3 -20z"/>
<path d="M2000 1351 c0 -30 18 -41 53 -33 11 2 17 13 17 33 0 21 -5 29 -17 28
-11 0 -13 -3 -5 -6 6 -2 12 -13 12 -24 0 -14 -7 -19 -25 -19 -18 0 -25 5 -25
19 0 11 6 22 13 24 7 3 5 6 -5 6 -13 1 -18 -7 -18 -28z"/>
<path d="M2150 1371 c0 -4 11 -6 25 -3 20 3 25 0 25 -16 0 -15 -8 -22 -27 -25
-26 -4 -26 -4 5 -6 29 -1 32 2 32 29 0 27 -3 30 -30 30 -16 0 -30 -4 -30 -9z"/>
<path d="M2290 1350 c0 -16 4 -30 9 -30 4 0 6 11 3 25 -4 21 -1 25 20 25 21 0
25 -4 20 -25 -2 -15 0 -25 7 -25 6 0 11 14 11 30 0 28 -3 30 -35 30 -32 0 -35
-2 -35 -30z"/>
<path d="M2430 1350 c0 -16 4 -30 9 -30 4 0 6 11 3 25 -4 22 -1 25 23 25 24 0
27 -3 23 -25 -3 -14 -1 -25 3 -25 5 0 9 14 9 30 0 28 -3 30 -35 30 -32 0 -35
-2 -35 -30z"/>
<path d="M2570 1350 c0 -22 5 -30 17 -30 13 0 14 3 5 12 -20 20 -14 38 13 38
18 0 25 -5 25 -19 0 -11 -6 -22 -12 -24 -8 -3 -6 -6 5 -6 12 -1 17 7 17 29 0
28 -3 30 -35 30 -32 0 -35 -2 -35 -30z"/>
<path d="M361 1294 c0 -11 3 -14 6 -6 3 7 2 16 -1 19 -3 4 -6 -2 -5 -13z"/>
<path d="M397 1303 c13 -2 24 -13 26 -26 4 -18 5 -17 6 6 1 23 -3 27 -26 26
-23 -1 -24 -2 -6 -6z"/>
<path d="M501 1283 c2 -24 2 -25 6 -5 3 15 11 22 28 22 17 0 25 -7 28 -22 4
-20 4 -19 6 5 1 25 -2 27 -34 27 -32 0 -35 -2 -34 -27z"/>
<path d="M651 1293 c0 -11 3 -13 6 -5 2 6 13 12 23 12 10 0 21 -6 23 -12 3 -8
6 -6 6 5 1 12 -7 17 -29 17 -22 0 -30 -5 -29 -17z"/>
<path d="M791 1283 c2 -24 2 -25 6 -5 5 24 38 31 46 10 3 -8 6 -6 6 5 1 12 -7
17 -29 17 -26 0 -30 -3 -29 -27z"/>
<path d="M931 1283 c2 -24 2 -25 6 -5 7 34 50 30 56 -5 4 -26 4 -26 6 5 1 30
-1 32 -34 32 -32 0 -35 -2 -34 -27z"/>
<path d="M1233 1303 c9 -2 25 -2 35 0 9 3 1 5 -18 5 -19 0 -27 -2 -17 -5z"/>
<path d="M1361 1283 c2 -24 2 -25 6 -5 3 15 11 22 28 22 17 0 23 -4 19 -14 -3
-8 -1 -17 5 -21 7 -4 11 4 11 19 0 23 -4 26 -35 26 -32 0 -35 -2 -34 -27z"/>
<path d="M1501 1283 c2 -24 2 -25 6 -5 3 15 11 22 28 22 17 0 25 -7 28 -22 4
-20 4 -19 6 5 1 25 -2 27 -34 27 -32 0 -35 -2 -34 -27z"/>
<path d="M1651 1293 c0 -11 3 -13 6 -5 8 21 41 14 46 -10 4 -20 4 -19 6 5 1
24 -3 27 -29 27 -22 0 -30 -5 -29 -17z"/>
<path d="M1791 1283 c1 -23 2 -24 6 -6 3 14 13 23 31 26 24 4 24 4 -5 6 -30 1
-33 -2 -32 -26z"/>
<path d="M1931 1283 c2 -24 2 -25 6 -5 3 15 11 22 28 22 17 0 25 -7 28 -22 4
-20 4 -19 6 5 1 25 -2 27 -34 27 -32 0 -35 -2 -34 -27z"/>
<path d="M2071 1283 c2 -24 2 -25 6 -5 3 15 11 22 28 22 17 0 25 -7 28 -22 4
-20 4 -19 6 5 1 25 -2 27 -34 27 -32 0 -35 -2 -34 -27z"/>
<path d="M2220 1306 c0 -2 14 -6 30 -8 17 -3 30 -1 30 4 0 4 -13 8 -30 8 -16
0 -30 -2 -30 -4z"/>
<path d="M2361 1283 c2 -24 2 -25 6 -5 3 16 11 22 30 22 18 0 24 -4 20 -15 -4
-8 -2 -17 3 -20 6 -4 10 5 10 19 0 23 -4 26 -35 26 -32 0 -35 -2 -34 -27z"/>
<path d="M2500 1285 c0 -14 2 -25 4 -25 2 0 6 11 8 25 3 14 1 25 -3 25 -5 0
-9 -11 -9 -25z"/>
<path d="M2542 1303 c9 -2 19 -14 21 -26 4 -18 5 -17 6 6 1 22 -3 27 -21 26
-16 -1 -18 -3 -6 -6z"/>
<path d="M70 2850 c0 -26 3 -30 28 -29 26 0 26 1 5 9 -15 6 -21 15 -18 30 2
11 0 20 -6 20 -5 0 -9 -13 -9 -30z"/>
<path d="M112 2873 c9 -2 19 -14 21 -26 4 -18 5 -17 6 6 1 22 -3 27 -21 26
-16 -1 -18 -3 -6 -6z"/>
<path d="M2931 2853 c-1 -32 0 -33 37 -31 36 1 36 1 5 5 -26 3 -33 9 -36 31
-4 24 -4 24 -6 -5z"/>
<path d="M37 2803 c14 -3 23 -13 26 -31 4 -24 4 -24 6 6 1 29 -2 32 -26 31
-23 -1 -24 -2 -6 -6z"/>
<path d="M2906 2802 c7 -4 14 -18 17 -32 4 -21 4 -20 6 8 1 24 -3 32 -16 32
-12 0 -14 -3 -7 -8z"/>
<path d="M2948 2733 c12 -2 30 -2 40 0 9 3 -1 5 -23 4 -22 0 -30 -2 -17 -4z"/>
<path d="M8 2603 c7 -3 16 -2 19 1 4 3 -2 6 -13 5 -11 0 -14 -3 -6 -6z"/>
<path d="M2968 2593 c6 -2 18 -2 25 0 6 3 1 5 -13 5 -14 0 -19 -2 -12 -5z"/>
<path d="M2968 2533 c6 -2 18 -2 25 0 6 3 1 5 -13 5 -14 0 -19 -2 -12 -5z"/>
<path d="M8 2523 c7 -3 16 -2 19 1 4 3 -2 6 -13 5 -11 0 -14 -3 -6 -6z"/>
<path d="M2968 2163 c6 -2 18 -2 25 0 6 3 1 5 -13 5 -14 0 -19 -2 -12 -5z"/>
<path d="M2968 2103 c6 -2 18 -2 25 0 6 3 1 5 -13 5 -14 0 -19 -2 -12 -5z"/>
<path d="M7 2093 c7 -2 19 -2 26 0 6 3 1 5 -13 5 -14 0 -19 -2 -13 -5z"/>
<path d="M2978 1963 c7 -3 16 -2 19 1 4 3 -2 6 -13 5 -11 0 -14 -3 -6 -6z"/>
<path d="M2968 1873 c6 -2 18 -2 25 0 6 3 1 5 -13 5 -14 0 -19 -2 -12 -5z"/>
<path d="M2968 1733 c6 -2 18 -2 25 0 6 3 1 5 -13 5 -14 0 -19 -2 -12 -5z"/>
<path d="M2968 1673 c6 -2 18 -2 25 0 6 3 1 5 -13 5 -14 0 -19 -2 -12 -5z"/>
<path d="M8 1603 c7 -3 16 -2 19 1 4 3 -2 6 -13 5 -11 0 -14 -3 -6 -6z"/>
<path d="M2968 1593 c6 -2 18 -2 25 0 6 3 1 5 -13 5 -14 0 -19 -2 -12 -5z"/>
<path d="M2968 1533 c6 -2 18 -2 25 0 6 3 1 5 -13 5 -14 0 -19 -2 -12 -5z"/>
<path d="M2968 1443 c6 -2 18 -2 25 0 6 3 1 5 -13 5 -14 0 -19 -2 -12 -5z"/>
<path d="M2968 1393 c6 -2 18 -2 25 0 6 3 1 5 -13 5 -14 0 -19 -2 -12 -5z"/>
<path d="M2968 1303 c6 -2 18 -2 25 0 6 3 1 5 -13 5 -14 0 -19 -2 -12 -5z"/>
<path d="M2968 1243 c6 -2 18 -2 25 0 6 3 1 5 -13 5 -14 0 -19 -2 -12 -5z"/>
<path d="M7 1173 c7 -2 19 -2 26 0 6 3 1 5 -13 5 -14 0 -19 -2 -13 -5z"/>
<path d="M2968 1163 c6 -2 18 -2 25 0 6 3 1 5 -13 5 -14 0 -19 -2 -12 -5z"/>
<path d="M2968 1103 c6 -2 18 -2 25 0 6 3 1 5 -13 5 -14 0 -19 -2 -12 -5z"/>
<path d="M2968 1013 c6 -2 18 -2 25 0 6 3 1 5 -13 5 -14 0 -19 -2 -12 -5z"/>
<path d="M2968 963 c7 -3 16 -2 19 1 4 3 -2 6 -13 5 -11 0 -14 -3 -6 -6z"/>
<path d="M48 893 c7 -3 16 -2 19 1 4 3 -2 6 -13 5 -11 0 -14 -3 -6 -6z"/>
<path d="M74 851 c0 -21 7 -36 16 -38 10 -3 11 -2 3 4 -6 4 -13 22 -16 38 -4
27 -5 27 -3 -4z"/>
<path d="M2930 845 c0 -33 -2 -35 -35 -35 -33 0 -35 -2 -35 -35 0 -33 -2 -35
-35 -35 -33 0 -35 -2 -35 -35 0 -33 2 -35 35 -35 33 0 35 -2 35 -35 0 -33 2
-35 35 -35 33 0 35 -2 35 -35 0 -34 1 -35 38 -33 36 1 36 1 5 5 -25 3 -33 9
-33 24 0 17 16 24 43 20 4 0 7 4 7 10 0 6 -12 9 -27 7 -26 -3 -28 0 -31 35 -3
37 -3 37 35 39 37 1 37 1 6 5 -27 4 -33 9 -33 28 0 19 6 24 33 28 31 4 31 4
-5 5 -36 2 -38 4 -38 37 0 33 2 35 33 36 30 2 30 2 5 6 -22 3 -28 10 -28 28 0
19 6 24 33 28 31 4 31 4 -5 5 -37 2 -38 1 -38 -33z m-14 -67 c-1 -16 -8 -24
-23 -26 -19 -3 -23 1 -23 22 0 21 5 26 24 26 18 0 23 -5 22 -22z m14 -73 c0
-33 -2 -35 -35 -35 -33 0 -35 2 -35 35 0 33 2 35 35 35 33 0 35 -2 35 -35z
m-90 0 c0 -18 -5 -25 -20 -25 -15 0 -20 7 -20 25 0 18 5 25 20 25 15 0 20 -7
20 -25z m70 -57 c0 -5 0 -15 0 -23 0 -8 -9 -15 -20 -15 -14 0 -20 7 -20 24 0
17 5 23 20 22 11 0 20 -4 20 -8z"/>
<path d="M48 803 c6 -2 12 -15 12 -28 0 -19 -6 -25 -32 -28 -32 -4 -32 -4 5
-5 35 -2 37 -4 37 -37 0 -31 -3 -35 -27 -36 -24 -2 -25 -2 -5 -6 34 -7 30 -50
-5 -56 -26 -4 -26 -4 5 -6 30 -1 32 1 32 34 0 33 2 35 35 35 33 0 35 2 35 35
0 33 2 35 35 35 19 0 35 3 35 8 0 9 -57 8 -67 -1 -3 -4 -21 -7 -40 -7 -31 0
-33 2 -33 35 0 27 -4 35 -17 34 -11 0 -13 -3 -5 -6z m82 -98 c0 -20 -5 -25
-25 -25 -23 0 -27 10 -16 48 1 1 10 2 21 2 15 0 20 -7 20 -25z"/>
<path d="M220 705 c0 -32 2 -35 30 -35 22 0 30 5 29 18 0 10 -3 12 -6 5 -2 -7
-13 -13 -24 -13 -22 0 -28 45 -6 53 7 3 5 6 -5 6 -14 1 -18 -7 -18 -34z"/>
<path d="M418 703 c-7 -28 -44 -31 -51 -5 -4 13 -5 11 -6 -5 -1 -20 4 -23 34
-23 33 0 35 -2 35 -35 0 -33 2 -35 35 -35 33 0 35 -2 35 -35 0 -33 2 -35 35
-35 33 0 35 2 35 35 0 31 3 35 28 36 23 2 24 2 5 6 -14 3 -22 11 -20 21 5 34
44 30 50 -5 3 -23 4 -21 6 10 1 36 0 37 -34 37 -31 0 -35 3 -36 28 -2 23 -2
24 -6 5 -3 -16 -11 -23 -28 -23 -17 0 -25 7 -28 23 -4 19 -4 18 -6 -5 -1 -25
-5 -28 -35 -28 -30 0 -35 3 -38 28 -3 25 -4 26 -10 5z m152 -68 c0 -19 -3 -36
-7 -36 -51 -8 -58 -4 -61 34 -3 36 -3 37 32 37 34 0 36 -2 36 -35z m-82 -2 c3
-19 -1 -23 -22 -23 -21 0 -26 5 -26 26 0 21 4 25 23 22 14 -2 23 -11 25 -25z
m72 -74 c0 -14 -7 -19 -25 -19 -18 0 -25 5 -25 19 0 11 6 21 13 24 20 7 37 -4
37 -24z"/>
<path d="M931 698 c-1 -25 -5 -28 -34 -28 -19 0 -37 3 -40 7 -10 9 -67 10 -67
1 0 -5 16 -8 35 -8 33 0 35 -2 35 -35 0 -33 2 -35 35 -35 33 0 35 -2 35 -35 0
-32 2 -35 28 -34 22 1 23 2 5 6 -23 5 -29 43 -6 43 7 0 16 1 21 2 4 1 10 -11
13 -28 l7 -29 1 33 c1 19 -4 32 -11 33 -7 1 -22 2 -33 3 -16 1 -21 9 -23 39
-3 36 -3 37 32 37 35 0 36 -1 36 -36 0 -34 1 -35 33 -32 28 3 32 7 35 36 3 29
6 32 38 32 31 0 34 3 33 28 -2 23 -2 24 -6 5 -3 -15 -12 -23 -24 -23 -11 0
-24 10 -29 23 -8 21 -9 21 -9 -5 -1 -25 -5 -28 -36 -28 -31 0 -35 3 -36 28 -2
23 -2 24 -6 5 -3 -16 -11 -23 -28 -23 -17 0 -25 7 -28 23 -4 19 -4 18 -6 -5z
m-23 -66 c3 -17 -2 -22 -17 -22 -16 0 -21 6 -21 24 0 31 34 29 38 -2z m152 2
c0 -19 -5 -24 -25 -24 -18 0 -25 5 -25 18 0 23 4 27 30 29 15 1 20 -4 20 -23z"/>
<path d="M1361 698 c-1 -26 2 -28 34 -28 26 0 35 -4 36 -17 0 -11 3 -13 6 -5
6 15 35 16 51 0 9 -9 12 -8 12 5 0 13 9 17 35 17 26 0 35 -4 35 -17 0 -13 3
-14 12 -5 16 16 45 15 51 0 3 -8 6 -6 6 5 1 13 -7 17 -34 17 -31 0 -35 3 -36
28 -2 23 -2 24 -6 5 -3 -16 -11 -23 -28 -23 -17 0 -25 7 -28 23 -4 19 -4 18
-6 -5 -1 -25 -5 -28 -36 -28 -29 0 -35 4 -36 23 -1 16 -2 18 -6 5 -7 -27 -51
-23 -56 5 -4 19 -4 18 -6 -5z"/>
<path d="M1931 698 c0 -14 -7 -28 -15 -30 -13 -3 -13 -6 0 -22 14 -19 14 -19
14 2 0 18 6 22 35 22 33 0 35 -2 35 -35 0 -33 2 -35 35 -35 33 0 35 2 35 35 0
33 2 35 35 35 32 0 35 2 34 28 -2 23 -2 24 -6 5 -3 -16 -11 -23 -28 -23 -17 0
-25 7 -28 23 -4 19 -4 18 -6 -5 -1 -25 -5 -28 -36 -28 -31 0 -35 3 -36 28 -2
23 -2 24 -6 5 -3 -16 -11 -23 -28 -23 -17 0 -25 7 -28 23 -4 19 -4 19 -6 -5z
m127 -64 c1 -19 -3 -24 -23 -24 -20 0 -25 5 -25 24 0 18 5 24 23 24 17 0 23
-7 25 -24z"/>
<path d="M2421 707 c-1 -23 -27 -33 -46 -17 -12 10 -15 9 -15 -4 0 -12 9 -16
35 -16 33 0 35 -2 35 -35 0 -33 2 -35 35 -35 33 0 35 -2 35 -35 0 -33 2 -35
35 -35 33 0 35 2 35 35 0 33 2 35 35 35 33 0 35 2 35 35 0 33 -2 35 -35 35
-31 0 -35 3 -36 28 -2 23 -2 24 -6 5 -3 -16 -11 -23 -28 -23 -17 0 -25 7 -28
23 -4 19 -4 18 -6 -5 -1 -25 -5 -28 -35 -28 -30 0 -35 4 -39 28 -2 15 -5 19
-6 9z m149 -72 c0 -28 -5 -38 -22 -45 -18 -7 -19 -9 -5 -9 10 -1 17 -9 17 -21
0 -15 -7 -20 -26 -20 -23 0 -26 3 -22 25 3 14 1 28 -3 31 -5 3 -9 21 -9 40 0
32 2 34 35 34 33 0 35 -2 35 -35z m-82 -2 c3 -19 -1 -23 -22 -23 -21 0 -26 5
-26 26 0 21 4 25 23 22 14 -2 23 -11 25 -25z m140 2 c-2 -18 -8 -25 -24 -25
-16 0 -21 5 -19 23 3 28 2 27 25 27 15 0 19 -6 18 -25z"/>
<path d="M675 680 l-30 -8 33 -1 c17 0 32 4 32 9 0 6 -1 9 -2 9 -2 -1 -16 -5
-33 -9z"/>
<path d="M1220 678 c0 -5 14 -8 30 -8 17 0 30 3 30 8 0 4 -13 7 -30 7 -16 0
-30 -3 -30 -7z"/>
<path d="M1650 678 c0 -5 14 -8 30 -8 17 0 30 3 30 8 0 4 -13 7 -30 7 -16 0
-30 -3 -30 -7z"/>
<path d="M1790 678 c0 -5 14 -8 30 -8 17 0 30 3 30 8 0 4 -13 7 -30 7 -16 0
-30 -3 -30 -7z"/>
<path d="M2220 678 c0 -5 14 -8 30 -8 17 0 30 3 30 8 0 4 -13 7 -30 7 -16 0
-30 -3 -30 -7z"/>
<path d="M2663 673 c9 -2 25 -2 35 0 9 3 1 5 -18 5 -19 0 -27 -2 -17 -5z"/>
<path d="M150 660 c0 -6 11 -8 25 -4 22 5 25 3 25 -19 0 -20 -6 -27 -27 -30
-26 -4 -26 -4 5 -6 30 -1 32 1 32 34 0 32 -2 35 -30 35 -16 0 -30 -5 -30 -10z"/>
<path d="M290 635 c0 -32 2 -35 29 -35 17 0 32 4 35 8 3 5 -8 6 -25 4 -26 -4
-29 -2 -29 23 0 24 3 27 25 23 14 -3 25 -1 25 3 0 5 -13 9 -30 9 -28 0 -30 -3
-30 -35z"/>
<path d="M722 635 c-3 -34 -1 -35 30 -34 31 2 32 2 5 6 -22 4 -28 9 -25 26 2
13 13 24 28 28 24 7 24 7 -5 8 -28 1 -31 -2 -33 -34z"/>
<path d="M1150 661 c0 -5 9 -7 21 -4 12 4 25 0 30 -8 7 -11 9 -10 9 4 0 12 -8
17 -30 17 -16 0 -30 -4 -30 -9z"/>
<path d="M1290 653 c0 -14 2 -15 9 -4 5 8 18 12 30 8 12 -3 21 -1 21 4 0 5
-13 9 -30 9 -22 0 -30 -5 -30 -17z"/>
<path d="M1720 663 c0 -5 14 -8 30 -8 17 0 30 3 30 8 0 4 -13 7 -30 7 -16 0
-30 -3 -30 -7z"/>
<path d="M1860 653 c0 -10 4 -14 8 -8 4 6 11 13 16 18 5 4 2 7 -7 7 -10 0 -17
-8 -17 -17z"/>
<path d="M2150 653 c0 -11 3 -14 8 -7 14 21 42 12 42 -14 0 -21 -4 -24 -25
-20 -14 3 -25 1 -25 -3 0 -5 14 -9 30 -9 28 0 30 3 30 35 0 32 -2 35 -30 35
-22 0 -30 -5 -30 -17z"/>
<path d="M2290 635 c0 -33 2 -35 33 -34 30 2 30 2 5 6 -22 3 -28 10 -28 29 0
27 27 34 36 9 4 -8 10 -13 15 -10 17 11 -4 35 -32 35 -26 0 -29 -3 -29 -35z"/>
<path d="M2720 635 c0 -19 4 -35 8 -35 4 0 8 12 7 27 0 19 6 29 19 31 16 3 18
-1 14 -27 -2 -17 -1 -31 4 -31 4 0 8 16 8 35 0 32 -2 35 -30 35 -28 0 -30 -3
-30 -35z"/>
<path d="M1090 468 l0 -143 -89 -48 c-105 -56 -120 -78 -81 -117 20 -20 33
-20 555 -20 515 0 537 1 575 20 71 36 66 47 -57 123 l-84 51 3 138 3 138 -412
0 -413 0 0 -142z m790 -11 c0 -65 4 -126 9 -136 6 -10 46 -40 91 -66 133 -81
144 -80 -487 -83 -528 -2 -563 -1 -563 28 0 5 32 23 71 41 38 18 81 46 95 62
22 26 25 39 24 101 -1 39 -1 92 -1 118 l1 47 48 3 c26 2 197 3 379 3 l333 0 0
-118z"/>
<path d="M83 593 c-7 -2 -13 -18 -13 -34 0 -26 3 -29 35 -29 33 0 35 2 35 35
0 30 -3 35 -22 34 -13 0 -29 -3 -35 -6z m45 -31 c3 -18 -1 -22 -22 -22 -25 0
-27 5 -17 48 1 2 9 2 19 0 9 -2 18 -13 20 -26z"/>
<path d="M222 580 c0 -14 2 -19 5 -12 2 6 2 18 0 25 -3 6 -5 1 -5 -13z"/>
<path d="M266 585 c4 -8 8 -15 10 -15 2 0 4 7 4 15 0 8 -4 15 -10 15 -5 0 -7
-7 -4 -15z"/>
<path d="M360 565 c0 -19 4 -35 9 -35 4 0 6 11 3 25 -3 17 1 27 13 31 25 10
39 -10 26 -35 -10 -17 -9 -21 4 -21 21 0 20 56 -1 64 -39 15 -54 7 -54 -29z"/>
<path d="M654 589 c-4 -7 2 -9 17 -7 19 2 25 -2 27 -21 3 -21 0 -23 -22 -19
-14 3 -26 1 -26 -3 0 -5 14 -9 30 -9 28 0 30 3 30 35 0 30 -3 35 -24 35 -14 0
-28 -5 -32 -11z"/>
<path d="M790 564 c0 -32 2 -34 33 -33 29 2 29 2 5 6 -19 3 -26 10 -25 24 1
17 16 24 40 20 5 -1 6 3 3 8 -3 4 -17 9 -31 9 -22 0 -25 -5 -25 -34z"/>
<path d="M2083 593 c-7 -2 -13 -18 -13 -34 0 -26 3 -29 35 -29 34 0 35 1 34
38 -1 36 -2 36 -8 7 -7 -36 -47 -49 -47 -15 0 13 7 20 18 20 10 0 18 5 18 10
0 10 -16 12 -37 3z"/>
<path d="M2238 592 c-12 -2 -18 -13 -18 -33 0 -24 4 -29 23 -28 16 1 18 2 5 6
-10 2 -18 13 -18 24 0 18 10 23 38 20 6 -1 12 2 12 7 0 9 -13 10 -42 4z"/>
<path d="M2362 568 c-2 -37 -1 -38 33 -38 32 0 35 2 35 29 0 17 -4 33 -10 36
-6 4 -8 -6 -6 -24 3 -27 0 -31 -20 -31 -18 0 -24 6 -27 33 -4 31 -4 31 -5 -5z"/>
<path d="M2657 593 c-4 -3 -7 -11 -7 -17 0 -6 4 -6 11 1 16 16 39 5 39 -17 0
-13 -9 -20 -27 -23 -26 -4 -26 -4 5 -6 30 -1 32 1 32 34 0 30 -3 35 -23 35
-13 0 -27 -3 -30 -7z"/>
<path d="M2790 566 c0 -34 2 -36 35 -36 30 0 35 3 35 23 0 12 -5 29 -10 37 -8
11 -9 6 -5 -17 5 -30 3 -33 -21 -33 -23 0 -26 3 -22 25 3 14 1 28 -3 31 -5 3
-9 -11 -9 -30z"/>
<path d="M1987 566 c4 -21 1 -25 -23 -29 -28 -4 -28 -4 4 -6 29 -1 32 2 32 29
0 17 -4 30 -9 30 -4 0 -6 -11 -4 -24z"/>
<path d="M2272 550 c0 -14 2 -19 5 -12 2 6 2 18 0 25 -3 6 -5 1 -5 -13z"/>
<path d="M270 549 c0 -7 -10 -9 -25 -7 -14 3 -25 1 -25 -3 0 -5 14 -9 30 -9
20 0 30 5 30 15 0 8 -2 15 -5 15 -3 0 -5 -5 -5 -11z"/>
<path d="M58 490 c2 -16 6 -30 8 -30 2 0 4 14 4 30 0 17 -4 30 -8 30 -5 0 -7
-13 -4 -30z"/>
<path d="M150 490 c0 -16 4 -30 9 -30 4 0 6 11 3 25 -3 20 0 25 17 25 23 0 30
-35 9 -43 -8 -3 -6 -6 5 -6 12 -1 17 7 17 29 0 27 -3 30 -30 30 -27 0 -30 -3
-30 -30z"/>
<path d="M290 490 c0 -27 3 -30 33 -29 30 2 30 2 5 6 -20 3 -28 10 -28 25 0
16 5 19 25 16 14 -3 25 -1 25 3 0 5 -13 9 -30 9 -27 0 -30 -3 -30 -30z"/>
<path d="M430 490 c0 -28 3 -30 35 -30 32 0 35 2 35 30 0 28 -3 30 -35 30 -32
0 -35 -2 -35 -30z m60 0 c0 -15 -7 -20 -25 -20 -18 0 -25 5 -25 20 0 15 7 20
25 20 18 0 25 -5 25 -20z"/>
<path d="M570 490 c0 -28 3 -30 35 -30 33 0 35 2 34 33 -2 30 -2 30 -6 5 -3
-22 -10 -28 -29 -28 -29 0 -34 36 -6 43 13 4 11 5 -5 6 -19 1 -23 -4 -23 -29z"/>
<path d="M720 490 c0 -27 3 -30 30 -30 27 0 30 3 30 30 0 27 -3 30 -30 30 -27
0 -30 -3 -30 -30z m50 0 c0 -13 -7 -20 -20 -20 -13 0 -20 7 -20 20 0 13 7 20
20 20 13 0 20 -7 20 -20z"/>
<path d="M860 490 c0 -28 3 -30 35 -30 32 0 35 2 35 30 0 28 -3 30 -35 30 -32
0 -35 -2 -35 -30z m53 5 c4 -8 2 -17 -4 -21 -15 -9 -39 3 -39 21 0 19 36 20
43 0z"/>
<path d="M1000 490 c0 -16 3 -30 8 -30 4 0 7 14 7 30 0 17 -3 30 -7 30 -5 0
-8 -13 -8 -30z"/>
<path d="M2000 490 c0 -16 3 -30 8 -30 4 0 7 14 7 30 0 17 -3 30 -7 30 -5 0
-8 -13 -8 -30z"/>
<path d="M2042 513 c9 -2 19 -16 21 -31 4 -24 4 -24 6 6 1 27 -2 32 -21 31
-16 -1 -18 -3 -6 -6z"/>
<path d="M2173 513 c18 -3 27 -10 27 -23 0 -13 -9 -20 -27 -23 -26 -4 -26 -4
5 -6 29 -1 32 2 32 29 0 27 -3 30 -32 29 -31 -2 -31 -2 -5 -6z"/>
<path d="M2290 490 c0 -28 3 -30 35 -30 32 0 35 2 35 30 0 17 -4 30 -10 30 -5
0 -10 -11 -10 -25 0 -19 -5 -25 -21 -25 -17 0 -20 5 -17 25 3 14 1 25 -3 25
-5 0 -9 -13 -9 -30z"/>
<path d="M2430 490 c0 -28 3 -30 35 -30 32 0 35 2 35 30 0 17 -4 30 -9 30 -4
0 -6 -11 -3 -25 4 -22 1 -25 -22 -25 -19 0 -26 5 -26 19 0 11 8 22 18 24 13 4
11 5 -5 6 -19 1 -23 -4 -23 -29z"/>
<path d="M2570 490 c0 -28 3 -30 35 -30 33 0 35 2 34 33 -2 30 -2 30 -6 5 -3
-21 -10 -28 -28 -28 -19 0 -23 5 -20 25 1 14 -2 25 -6 25 -5 0 -9 -13 -9 -30z"/>
<path d="M2721 493 c-1 -30 2 -33 29 -33 27 0 30 3 30 30 0 25 -4 30 -22 29
-17 -1 -19 -2 -5 -6 25 -7 22 -43 -4 -43 -11 0 -18 3 -16 8 3 4 1 16 -4 27 -6
16 -8 14 -8 -12z"/>
<path d="M2860 490 c0 -28 3 -30 35 -30 32 0 35 2 35 30 0 28 -3 30 -35 30
-32 0 -35 -2 -35 -30z m57 0 c-1 -14 -8 -20 -24 -20 -16 0 -23 6 -23 20 0 15
7 20 24 20 19 0 24 -5 23 -20z"/>
<path d="M70 420 c0 -25 4 -30 23 -29 16 0 18 2 7 7 -8 4 -16 15 -18 25 -2 13
4 17 24 17 23 0 26 -3 22 -29 -2 -17 -1 -28 4 -25 4 3 8 18 8 35 0 27 -3 29
-35 29 -32 0 -35 -2 -35 -30z"/>
<path d="M221 428 c1 -17 2 -19 6 -5 6 24 43 22 43 -3 0 -15 -7 -20 -27 -21
l-28 -1 25 -7 c33 -10 40 -5 40 30 0 26 -3 29 -30 29 -25 0 -30 -4 -29 -22z"/>
<path d="M360 420 c0 -28 3 -30 35 -30 32 0 35 2 35 30 0 22 -5 30 -17 29 -11
0 -13 -3 -5 -6 6 -2 12 -13 12 -24 0 -14 -7 -19 -25 -19 -18 0 -25 5 -25 19 0
11 6 22 13 24 7 3 5 6 -5 6 -13 1 -18 -7 -18 -29z"/>
<path d="M500 420 c0 -16 3 -30 8 -30 4 0 7 14 7 30 0 17 -3 30 -7 30 -5 0 -8
-13 -8 -30z"/>
<path d="M548 443 c6 -2 12 -13 12 -23 0 -10 -6 -21 -12 -23 -8 -3 -6 -6 5 -6
12 -1 17 7 17 29 0 22 -5 30 -17 29 -11 0 -13 -3 -5 -6z"/>
<path d="M646 442 c-3 -5 9 -6 26 -4 29 4 31 3 26 -22 -3 -14 -1 -26 3 -26 5
0 9 14 9 30 0 27 -3 30 -29 30 -17 0 -32 -4 -35 -8z"/>
<path d="M790 420 c0 -16 4 -30 9 -30 4 0 6 11 3 25 -3 20 0 25 17 25 23 0 30
-35 9 -43 -7 -3 -3 -6 10 -6 18 -1 22 4 22 29 0 28 -3 30 -35 30 -32 0 -35 -2
-35 -30z"/>
<path d="M930 420 c0 -22 5 -30 18 -29 10 0 12 3 5 6 -7 2 -13 13 -13 24 0 13
7 19 24 19 19 0 26 -6 29 -27 4 -26 4 -26 6 5 1 30 -1 32 -34 32 -32 0 -35 -2
-35 -30z"/>
<path d="M1969 443 c18 -4 22 -10 18 -29 -2 -13 0 -24 4 -24 5 0 9 14 9 30 0
26 -3 30 -27 29 -26 -2 -26 -2 -4 -6z"/>
<path d="M2070 420 c0 -24 4 -30 21 -30 19 0 19 1 5 16 -23 22 -20 34 8 34 19
0 26 -6 29 -27 4 -26 4 -26 6 5 1 30 -1 32 -34 32 -32 0 -35 -2 -35 -30z"/>
<path d="M2220 420 c0 -25 4 -30 23 -29 16 1 18 2 5 6 -25 6 -23 43 1 43 14 0
21 -8 24 -27 4 -26 4 -26 6 5 1 29 -2 32 -29 32 -27 0 -30 -3 -30 -30z"/>
<path d="M2360 420 c0 -23 5 -30 19 -30 38 0 51 -11 51 -46 0 -32 -2 -34 -35
-34 -33 0 -35 -2 -35 -35 0 -33 2 -35 35 -35 33 0 35 -2 35 -35 0 -33 -2 -35
-35 -35 -33 0 -35 -2 -35 -35 0 -33 2 -35 35 -35 33 0 35 2 35 35 0 33 2 35
35 35 33 0 35 -2 35 -35 0 -33 2 -35 35 -35 33 0 35 2 35 35 0 26 4 35 18 36
10 0 12 3 5 6 -7 2 -13 16 -13 29 0 19 5 24 25 24 20 0 25 -5 25 -24 0 -13 -6
-27 -12 -29 -8 -3 -6 -6 5 -6 13 -1 17 7 17 34 0 33 -2 35 -35 35 -33 0 -35 2
-35 35 0 33 2 35 35 35 33 0 35 2 35 35 0 33 -2 35 -35 35 -19 0 -35 -4 -35
-8 0 -5 14 -7 30 -4 27 4 30 1 30 -22 0 -21 -5 -26 -26 -26 -14 0 -23 4 -19 9
3 5 1 12 -5 16 -5 3 -10 -3 -10 -14 0 -17 -6 -21 -35 -21 -33 0 -35 2 -35 35
0 33 -2 35 -35 35 -33 0 -35 2 -35 35 0 27 -4 35 -17 35 -10 0 -14 -4 -8 -8 6
-4 11 -15 13 -24 2 -13 -4 -18 -23 -18 -18 0 -25 5 -25 19 0 11 6 22 13 24 7
3 5 6 -5 6 -13 1 -18 -7 -18 -29z m130 -74 c0 -18 -5 -23 -25 -23 -20 0 -25 5
-25 23 0 19 5 24 25 24 20 0 25 -5 25 -24z m10 -71 c0 -33 -2 -35 -35 -35 -33
0 -35 2 -35 35 0 33 2 35 35 35 33 0 35 -2 35 -35z m-84 0 c0 -19 -5 -25 -23
-25 -18 0 -23 6 -23 25 0 19 5 25 23 25 18 0 23 -6 23 -25z m144 0 c0 -20 -5
-25 -25 -25 -20 0 -25 5 -25 25 0 20 5 25 25 25 20 0 25 -5 25 -25z m10 -70
c0 -33 -2 -35 -35 -35 -33 0 -35 2 -35 35 0 33 2 35 35 35 33 0 35 -2 35 -35z
m-80 0 c0 -20 -5 -25 -25 -25 -20 0 -25 5 -25 25 0 20 5 25 25 25 20 0 25 -5
25 -25z m-85 -53 c6 -4 11 -15 13 -24 2 -13 -4 -18 -23 -18 -20 0 -25 5 -25
25 0 24 15 32 35 17z m155 -17 c0 -20 -5 -25 -25 -25 -18 0 -25 5 -25 18 0 24
8 32 32 32 13 0 18 -7 18 -25z"/>
<path d="M2500 420 c0 -16 4 -30 9 -30 4 0 6 11 3 25 -4 22 -1 25 22 25 19 0
26 -5 26 -19 0 -11 -6 -22 -12 -24 -8 -3 -6 -6 5 -6 12 -1 17 7 17 29 0 28 -3
30 -35 30 -32 0 -35 -2 -35 -30z"/>
<path d="M2652 420 c0 -19 2 -27 5 -17 2 9 2 25 0 35 -3 9 -5 1 -5 -18z"/>
<path d="M2682 443 c9 -2 19 -12 21 -21 3 -12 5 -10 6 6 1 17 -4 22 -21 21
-16 -1 -18 -3 -6 -6z"/>
<path d="M2790 420 c0 -16 4 -30 9 -30 4 0 6 11 4 24 -4 21 -1 25 23 29 28 4
28 4 -3 6 -30 1 -33 -2 -33 -29z"/>
<path d="M2930 420 c0 -22 5 -30 18 -29 10 0 12 3 5 6 -7 2 -13 13 -13 23 0
14 9 20 33 23 31 4 31 4 -5 5 -36 2 -38 0 -38 -28z"/>
<path d="M2840 400 c-9 -6 -10 -10 -3 -10 6 0 15 5 18 10 8 12 4 12 -15 0z"/>
<path d="M2688 393 c7 -3 16 -2 19 1 4 3 -2 6 -13 5 -11 0 -14 -3 -6 -6z"/>
<path d="M38 373 c15 -3 22 -11 22 -28 0 -17 -7 -25 -22 -28 -20 -4 -19 -4 5
-6 24 -1 27 -5 27 -36 0 -33 -2 -35 -37 -37 -37 -1 -37 -1 -5 -5 26 -4 32 -9
32 -28 0 -17 -7 -25 -23 -28 -19 -4 -18 -4 6 -6 25 -1 27 2 27 34 0 33 2 35
35 35 33 0 35 2 35 35 0 33 -2 35 -35 35 -33 0 -35 2 -35 35 0 32 -2 35 -27
34 -24 -2 -25 -2 -5 -6z m92 -99 c0 -21 -4 -25 -22 -22 -15 2 -24 11 -26 26
-3 18 1 22 22 22 21 0 26 -5 26 -26z"/>
<path d="M148 375 c-2 -3 -3 -18 0 -35 4 -25 9 -30 33 -30 26 0 29 3 29 35 0
32 -3 35 -28 35 -16 0 -31 -2 -34 -5z m52 -30 c0 -18 -5 -25 -20 -25 -15 0
-20 7 -20 25 0 18 5 25 20 25 15 0 20 -7 20 -25z"/>
<path d="M290 344 c0 -34 1 -35 33 -32 28 3 32 7 35 36 3 31 2 32 -32 32 -35
0 -36 -1 -36 -36z m52 20 c12 -11 -5 -44 -23 -44 -14 0 -19 7 -19 25 0 18 5
25 18 25 10 0 21 -3 24 -6z"/>
<path d="M430 345 c0 -33 -2 -35 -35 -35 -33 0 -35 -2 -35 -35 0 -33 -2 -35
-35 -35 -33 0 -35 -2 -35 -35 0 -33 2 -35 35 -35 33 0 35 -2 35 -35 0 -33 2
-35 35 -35 33 0 35 2 35 35 0 33 2 35 35 35 33 0 35 -2 35 -35 0 -33 2 -35 35
-35 33 0 35 2 35 35 0 33 2 35 35 35 33 0 35 2 35 35 0 33 -2 35 -35 35 -33 0
-35 2 -35 35 0 33 2 35 35 35 33 0 35 2 35 35 0 33 -2 35 -35 35 -33 0 -35 -2
-35 -35 0 -33 -2 -35 -35 -35 -33 0 -35 2 -35 35 0 33 -2 35 -35 35 -33 0 -35
-2 -35 -35z m58 3 c-2 -15 -10 -23 -23 -23 -13 0 -21 8 -23 23 -3 18 1 22 23
22 22 0 26 -4 23 -22z m140 -3 c-2 -18 -8 -25 -23 -25 -15 0 -21 7 -23 25 -1
20 3 25 23 25 20 0 24 -5 23 -25z m-128 -70 c0 -33 -2 -35 -35 -35 -33 0 -35
2 -35 35 0 33 2 35 35 35 33 0 35 -2 35 -35z m-85 8 c-2 -10 -4 -21 -4 -25 -1
-5 -10 -8 -21 -8 -15 0 -20 7 -20 25 0 20 5 25 24 25 18 0 23 -5 21 -17z m145
-8 c0 -20 -5 -25 -25 -25 -20 0 -25 5 -25 25 0 20 5 25 25 25 20 0 25 -5 25
-25z m-130 -70 c0 -33 -2 -35 -35 -35 -33 0 -35 2 -35 35 0 33 2 35 35 35 33
0 35 -2 35 -35z m140 0 c0 -33 -2 -35 -35 -35 -33 0 -35 2 -35 35 0 33 2 35
35 35 33 0 35 -2 35 -35z m-230 0 c0 -18 -5 -25 -20 -25 -15 0 -20 7 -20 25 0
18 5 25 20 25 15 0 20 -7 20 -25z m150 0 c0 -20 -5 -25 -25 -25 -20 0 -25 5
-25 25 0 20 5 25 25 25 20 0 25 -5 25 -25z m140 0 c0 -20 -5 -25 -24 -25 -18
0 -23 5 -23 25 0 20 5 25 23 25 19 0 24 -5 24 -25z m-212 -73 c3 -18 -1 -22
-22 -22 -19 0 -26 5 -26 18 0 39 43 43 48 4z m142 -3 c0 -14 -7 -19 -25 -19
-18 0 -25 5 -25 19 0 11 6 21 13 24 20 7 37 -4 37 -24z"/>
<path d="M720 345 c0 -32 2 -35 30 -35 28 0 30 3 30 35 0 32 -2 35 -30 35 -28
0 -30 -3 -30 -35z m50 0 c0 -18 -5 -25 -20 -25 -15 0 -20 7 -20 25 0 18 5 25
20 25 15 0 20 -7 20 -25z"/>
<path d="M860 345 c0 -33 -2 -35 -35 -35 -33 0 -35 -2 -35 -35 0 -33 2 -35 35
-35 33 0 35 -2 35 -35 0 -19 3 -35 8 -35 4 0 7 16 7 35 0 19 -3 35 -7 35 -5 0
-8 16 -8 35 0 33 2 35 35 35 27 0 35 -4 35 -17 0 -12 3 -14 8 -6 4 6 21 13 37
15 27 3 30 7 31 41 l1 37 -4 -35 c-4 -32 -7 -35 -39 -35 -19 0 -34 4 -34 10 0
5 -13 7 -30 4 -27 -6 -30 -4 -30 20 0 21 5 26 24 26 15 0 26 -7 29 -17 4 -14
5 -12 6 5 1 19 -4 22 -34 22 -33 0 -35 -2 -35 -35z m-20 -70 c0 -18 -5 -25
-20 -25 -15 0 -20 7 -20 25 0 18 5 25 20 25 15 0 20 -7 20 -25z"/>
<path d="M1028 373 c7 -3 16 -2 19 1 4 3 -2 6 -13 5 -11 0 -14 -3 -6 -6z"/>
<path d="M2000 345 c0 -33 2 -35 35 -35 29 0 35 -4 36 -22 1 -17 2 -19 6 -5 3
10 14 17 29 17 19 0 24 -5 24 -24 0 -15 -7 -26 -17 -29 -14 -4 -12 -5 5 -6 19
-1 22 4 22 34 0 33 -2 35 -35 35 -33 0 -35 2 -35 35 0 33 -2 35 -35 35 -33 0
-35 -2 -35 -35z m60 0 c0 -20 -5 -25 -25 -25 -20 0 -25 5 -25 25 0 20 5 25 25
25 20 0 25 -5 25 -25z"/>
<path d="M2150 345 c0 -32 2 -35 30 -35 28 0 30 3 30 35 0 32 -2 35 -30 35
-28 0 -30 -3 -30 -35z m50 0 c0 -18 -5 -25 -20 -25 -15 0 -20 7 -20 25 0 18 5
25 20 25 15 0 20 -7 20 -25z"/>
<path d="M2290 344 c0 -34 1 -35 33 -32 28 3 32 7 35 36 3 31 2 32 -32 32 -35
0 -36 -1 -36 -36z m50 1 c0 -18 -5 -25 -20 -25 -15 0 -20 7 -20 25 0 18 5 25
20 25 15 0 20 -7 20 -25z"/>
<path d="M2720 345 c0 -32 2 -35 30 -35 28 0 30 3 30 35 0 32 -2 35 -30 35
-28 0 -30 -3 -30 -35z m50 0 c0 -18 -5 -25 -20 -25 -15 0 -20 7 -20 25 0 18 5
25 20 25 15 0 20 -7 20 -25z"/>
<path d="M2860 345 c0 -33 -2 -35 -35 -35 -33 0 -35 -2 -35 -35 0 -33 2 -35
35 -35 33 0 35 -2 35 -35 0 -33 2 -35 35 -35 33 0 35 -2 35 -35 0 -34 1 -35
38 -33 36 1 36 1 5 5 -28 4 -33 8 -33 30 0 20 4 24 19 20 10 -2 25 -1 32 4 9
6 1 9 -23 9 -37 0 -38 1 -38 35 0 33 2 35 38 37 36 1 36 1 5 5 -27 4 -33 9
-33 28 0 19 6 24 33 28 31 4 31 4 -5 5 -36 2 -38 4 -38 37 0 33 -2 35 -35 35
-33 0 -35 -2 -35 -35z m60 16 c0 -23 -14 -41 -31 -41 -14 0 -19 7 -19 25 0 20
5 25 25 25 14 0 25 -4 25 -9z m10 -86 c0 -33 -2 -35 -35 -35 -33 0 -35 2 -35
35 0 33 2 35 35 35 33 0 35 -2 35 -35z m-90 0 c0 -18 -5 -25 -20 -25 -15 0
-20 7 -20 25 0 18 5 25 20 25 15 0 20 -7 20 -25z m75 -70 c0 -19 -5 -25 -22
-25 -18 0 -23 6 -23 25 0 19 5 25 23 25 17 0 22 -6 22 -25z"/>
<path d="M220 275 c0 -32 2 -35 30 -35 28 0 30 3 30 35 0 32 -2 35 -30 35 -28
0 -30 -3 -30 -35z m50 0 c0 -18 -5 -25 -20 -25 -15 0 -20 7 -20 25 0 18 5 25
20 25 15 0 20 -7 20 -25z"/>
<path d="M651 293 c0 -11 3 -13 6 -5 2 6 14 12 25 12 17 0 20 -5 16 -30 -3
-16 -1 -30 4 -30 4 0 8 16 8 35 0 32 -2 35 -30 35 -22 0 -30 -5 -29 -17z"/>
<path d="M2220 275 c0 -32 2 -35 30 -35 28 0 30 3 30 35 0 32 -2 35 -30 35
-28 0 -30 -3 -30 -35z m50 0 c0 -18 -5 -25 -20 -25 -15 0 -20 7 -20 25 0 18 5
25 20 25 15 0 20 -7 20 -25z"/>
<path d="M2650 275 c0 -32 2 -35 30 -35 28 0 30 3 30 35 0 32 -2 35 -30 35
-28 0 -30 -3 -30 -35z m50 0 c0 -18 -5 -25 -20 -25 -15 0 -20 7 -20 25 0 18 5
25 20 25 15 0 20 -7 20 -25z"/>
<path d="M650 257 c0 -10 8 -17 18 -17 9 0 13 4 7 8 -5 4 -13 11 -17 16 -5 5
-8 2 -8 -7z"/>
<path d="M149 235 c-1 -3 -1 -14 -1 -25 0 -38 2 -40 35 -39 28 2 29 2 6 6 -37
6 -48 53 -13 53 16 0 24 -7 27 -22 4 -20 4 -19 6 5 1 24 -3 27 -29 27 -16 0
-30 -2 -31 -5z"/>
<path d="M720 205 c0 -32 2 -35 30 -35 22 0 30 5 29 18 0 10 -3 12 -6 5 -2 -7
-13 -13 -24 -13 -14 0 -19 7 -19 26 0 23 3 26 25 22 14 -3 25 -1 25 3 0 5 -13
9 -30 9 -28 0 -30 -3 -30 -35z"/>
<path d="M2150 214 c0 -14 4 -23 10 -19 5 3 7 12 3 20 -3 10 2 15 16 15 16 0
21 -6 21 -24 0 -19 -6 -26 -27 -29 -26 -4 -26 -4 5 -6 30 -1 32 1 32 34 0 32
-2 35 -30 35 -26 0 -30 -4 -30 -26z"/>
<path d="M2290 205 c0 -33 2 -35 33 -34 30 2 30 2 5 6 -22 3 -28 10 -28 29 0
27 27 33 49 12 10 -11 11 -10 6 5 -5 11 -18 17 -36 17 -26 0 -29 -3 -29 -35z"/>
<path d="M2720 205 c0 -32 2 -35 30 -35 28 0 30 3 30 35 0 32 -2 35 -30 35
-28 0 -30 -3 -30 -35z m50 0 c0 -17 -5 -25 -18 -25 -12 0 -18 8 -20 25 -1 19
3 25 18 25 15 0 20 -7 20 -25z"/>
<path d="M77 163 c-4 -3 -7 -19 -7 -35 0 -25 3 -28 35 -28 33 0 35 2 35 35 0
32 -3 35 -28 35 -16 0 -32 -3 -35 -7z m53 -34 c0 -14 -7 -19 -25 -19 -18 0
-25 5 -25 19 0 11 8 21 18 24 24 5 32 -1 32 -24z"/>
<path d="M220 135 c0 -32 2 -35 30 -35 28 0 30 3 30 35 0 32 -2 35 -30 35 -28
0 -30 -3 -30 -35z m50 0 c0 -18 -5 -25 -20 -25 -15 0 -20 7 -20 25 0 18 5 25
20 25 15 0 20 -7 20 -25z"/>
<path d="M650 161 c0 -4 10 -8 23 -7 16 1 23 -5 25 -23 3 -21 0 -23 -22 -19
-14 3 -26 1 -26 -3 0 -5 14 -9 30 -9 28 0 30 3 30 35 0 32 -2 35 -30 35 -16 0
-30 -4 -30 -9z"/>
<path d="M791 133 c1 -35 2 -36 8 -9 9 41 41 45 41 5 0 -16 5 -29 11 -29 6 0
9 14 7 33 -3 28 -7 32 -35 35 -32 3 -33 2 -32 -35z"/>
<path d="M2128 140 c4 -27 1 -30 -21 -30 -14 0 -28 6 -30 13 -3 7 -6 5 -6 -5
-1 -14 7 -18 34 -18 33 0 35 2 35 35 0 19 -4 35 -8 35 -5 0 -7 -13 -4 -30z"/>
<path d="M2220 135 c0 -32 2 -35 30 -35 28 0 30 3 30 35 0 32 -2 35 -30 35
-28 0 -30 -3 -30 -35z m48 -3 c3 -17 -2 -22 -17 -22 -16 0 -21 6 -21 26 0 33
33 30 38 -4z"/>
<path d="M2650 161 c0 -4 11 -6 25 -3 21 4 25 1 25 -21 0 -20 -6 -27 -27 -30
-26 -4 -26 -4 5 -6 30 -1 32 1 32 34 0 32 -2 35 -30 35 -16 0 -30 -4 -30 -9z"/>
<path d="M2790 136 c0 -35 1 -36 36 -36 34 0 35 1 32 33 -3 28 -7 32 -35 35
-32 3 -33 2 -33 -32z m50 -1 c0 -18 -5 -25 -20 -25 -15 0 -20 7 -20 25 0 18 5
25 20 25 15 0 20 -7 20 -25z"/>
<path d="M815 110 c-3 -5 -1 -10 4 -10 6 0 11 5 11 10 0 6 -2 10 -4 10 -3 0
-8 -4 -11 -10z"/>
<path d="M1088 103 c12 -2 30 -2 40 0 9 3 -1 5 -23 4 -22 0 -30 -2 -17 -4z"/>
<path d="M1233 103 c9 -2 25 -2 35 0 9 3 1 5 -18 5 -19 0 -27 -2 -17 -5z"/>
<path d="M1378 103 c12 -2 30 -2 40 0 9 3 -1 5 -23 4 -22 0 -30 -2 -17 -4z"/>
<path d="M1518 103 c12 -2 30 -2 40 0 9 3 -1 5 -23 4 -22 0 -30 -2 -17 -4z"/>
<path d="M1658 103 c6 -2 18 -2 25 0 6 3 1 5 -13 5 -14 0 -19 -2 -12 -5z"/>
<path d="M1803 103 c9 -2 25 -2 35 0 9 3 1 5 -18 5 -19 0 -27 -2 -17 -5z"/>
<path d="M57 71 c-2 -10 -1 -25 4 -32 6 -10 9 -4 9 19 0 36 -5 42 -13 13z"/>
<path d="M150 60 c0 -16 3 -30 8 -30 4 0 7 14 7 30 0 17 -3 30 -7 30 -5 0 -8
-13 -8 -30z"/>
<path d="M202 60 c0 -19 2 -27 5 -17 2 9 2 25 0 35 -3 9 -5 1 -5 -18z"/>
<path d="M292 60 c0 -19 2 -27 5 -17 2 9 2 25 0 35 -3 9 -5 1 -5 -18z"/>
<path d="M337 66 c4 -17 0 -25 -14 -29 -15 -4 -15 -5 3 -6 21 -1 34 16 34 45
0 8 -6 14 -14 14 -9 0 -12 -8 -9 -24z"/>
<path d="M430 60 c0 -39 6 -39 12 0 3 17 1 30 -4 30 -4 0 -8 -13 -8 -30z"/>
<path d="M485 68 c3 -12 -1 -26 -8 -30 -8 -5 -7 -8 6 -8 12 0 17 8 17 30 0 17
-4 30 -9 30 -6 0 -8 -10 -6 -22z"/>
<path d="M570 60 c0 -25 4 -30 23 -29 15 1 17 3 5 6 -27 7 -18 43 10 43 21 0
24 -4 20 -25 -3 -14 -1 -25 3 -25 5 0 9 14 9 30 0 28 -3 30 -35 30 -32 0 -35
-2 -35 -30z"/>
<path d="M721 63 c-1 -28 2 -33 22 -32 15 1 17 3 5 6 -9 2 -19 16 -21 31 -4
24 -4 24 -6 -5z"/>
<path d="M772 60 c0 -19 2 -27 5 -17 2 9 2 25 0 35 -3 9 -5 1 -5 -18z"/>
<path d="M861 63 c-1 -31 1 -33 34 -33 32 0 35 2 35 30 0 17 -4 30 -9 30 -4 0
-6 -11 -3 -25 4 -21 1 -25 -21 -25 -20 0 -27 6 -30 28 -4 25 -4 25 -6 -5z"/>
<path d="M1000 60 c0 -16 3 -30 8 -30 4 0 7 14 7 30 0 17 -3 30 -7 30 -5 0 -8
-13 -8 -30z"/>
<path d="M1058 60 c-3 -17 -1 -30 4 -30 4 0 8 14 8 30 0 39 -6 39 -12 0z"/>
<path d="M1290 60 c0 -16 4 -30 9 -30 4 0 6 12 3 26 -5 25 -3 26 26 22 17 -2
29 -1 26 4 -3 4 -18 8 -35 8 -26 0 -29 -3 -29 -30z"/>
<path d="M1430 60 c0 -22 5 -30 18 -30 13 0 14 2 3 9 -8 5 -12 18 -8 30 3 12
1 21 -4 21 -5 0 -9 -13 -9 -30z"/>
<path d="M1490 66 c0 -13 -6 -27 -12 -29 -8 -3 -6 -6 5 -6 12 -1 17 7 17 29 0
17 -2 30 -5 30 -3 0 -5 -11 -5 -24z"/>
<path d="M1570 62 c0 -22 5 -28 23 -29 19 -2 20 -1 5 8 -21 12 -24 35 -5 42 7
3 5 6 -5 6 -13 1 -18 -7 -18 -27z"/>
<path d="M1628 60 c-3 -17 -1 -30 4 -30 4 0 8 14 8 30 0 39 -6 39 -12 0z"/>
<path d="M1722 60 c0 -19 2 -27 5 -17 2 9 2 25 0 35 -3 9 -5 1 -5 -18z"/>
<path d="M1772 60 c0 -19 2 -27 5 -17 2 9 2 25 0 35 -3 9 -5 1 -5 -18z"/>
<path d="M1860 60 c0 -28 3 -30 35 -30 32 0 35 2 35 30 0 28 -3 30 -35 30 -32
0 -35 -2 -35 -30z m58 -2 c3 -13 -3 -18 -22 -18 -20 0 -26 5 -26 21 0 15 5 20
22 17 13 -2 24 -11 26 -20z"/>
<path d="M2000 60 c0 -28 3 -30 35 -30 33 0 35 2 34 33 -2 30 -2 30 -6 5 -3
-22 -10 -28 -30 -28 -22 0 -25 4 -21 25 3 14 1 25 -3 25 -5 0 -9 -13 -9 -30z"/>
<path d="M2197 66 c4 -21 1 -25 -23 -29 -28 -4 -28 -4 4 -6 29 -1 32 2 32 29
0 17 -4 30 -9 30 -4 0 -6 -11 -4 -24z"/>
<path d="M2291 63 c-1 -30 2 -33 28 -33 28 0 41 14 41 46 0 8 -4 14 -10 14 -5
0 -10 -11 -10 -25 0 -37 -37 -35 -43 3 -4 25 -4 25 -6 -5z"/>
<path d="M2430 60 c0 -28 3 -30 35 -30 32 0 35 2 35 30 0 17 -4 30 -9 30 -4 0
-6 -11 -3 -25 4 -22 1 -25 -23 -25 -24 0 -27 3 -23 25 3 14 1 25 -3 25 -5 0
-9 -13 -9 -30z"/>
<path d="M2570 60 c0 -16 4 -30 8 -30 5 0 8 10 7 23 -1 12 3 25 9 29 7 5 4 8
-6 8 -13 0 -18 -8 -18 -30z"/>
<path d="M2632 60 c0 -19 2 -27 5 -17 2 9 2 25 0 35 -3 9 -5 1 -5 -18z"/>
<path d="M2721 63 c-1 -30 2 -33 29 -33 22 0 30 5 29 18 0 10 -3 12 -6 5 -9
-25 -41 -14 -46 15 -4 25 -4 25 -6 -5z"/>
<path d="M2765 80 c3 -5 8 -10 11 -10 2 0 4 5 4 10 0 6 -5 10 -11 10 -5 0 -7
-4 -4 -10z"/>
<path d="M2860 60 c0 -28 3 -30 35 -30 32 0 35 2 35 30 0 17 -5 30 -10 30 -6
0 -8 -11 -4 -25 5 -22 3 -25 -21 -25 -24 0 -27 3 -23 25 3 14 1 25 -3 25 -5 0
-9 -13 -9 -30z"/>
<path d="M1152 50 c0 -14 2 -19 5 -12 2 6 2 18 0 25 -3 6 -5 1 -5 -13z"/>
<path d="M1202 50 c0 -14 2 -19 5 -12 2 6 2 18 0 25 -3 6 -5 1 -5 -13z"/>
<path d="M380 16 c0 -2 11 -6 25 -8 14 -3 25 -1 25 3 0 5 -11 9 -25 9 -14 0
-25 -2 -25 -4z"/>
<path d="M500 9 c0 -5 5 -7 10 -4 6 3 10 8 10 11 0 2 -4 4 -10 4 -5 0 -10 -5
-10 -11z"/>
<path d="M930 13 c0 -5 16 -8 35 -8 19 0 35 3 35 8 0 4 -16 7 -35 7 -19 0 -35
-3 -35 -7z"/>
<path d="M1500 9 c0 -5 5 -7 10 -4 6 3 10 8 10 11 0 2 -4 4 -10 4 -5 0 -10 -5
-10 -11z"/>
<path d="M1985 10 c3 -5 8 -10 11 -10 2 0 4 5 4 10 0 6 -5 10 -11 10 -5 0 -7
-4 -4 -10z"/>
<path d="M2070 10 c0 -5 7 -7 15 -4 8 4 15 8 15 10 0 2 -7 4 -15 4 -8 0 -15
-4 -15 -10z"/>
<path d="M2415 10 c3 -5 8 -10 11 -10 2 0 4 5 4 10 0 6 -5 10 -11 10 -5 0 -7
-4 -4 -10z"/>
<path d="M2500 9 c0 -5 5 -7 10 -4 6 3 10 8 10 11 0 2 -4 4 -10 4 -5 0 -10 -5
-10 -11z"/>
<path d="M2930 9 c0 -5 5 -7 10 -4 6 3 10 8 10 11 0 2 -4 4 -10 4 -5 0 -10 -5
-10 -11z"/>
</g>
</svg>
